<svg xmlns="http://www.w3.org/2000/svg" viewBox="0 0 850 1100" width="850" height="1100"><rect width="850" height="1100" fill="#fff"/><rect x="40" y="32" width="385.0" height="46" rx="23" fill="#fff" stroke="#111" stroke-width="2.8" stroke-linejoin="round" stroke-linecap="round"/><text x="232.5" y="63" font-family="'Arial Rounded MT Bold','Nunito','Arial',sans-serif" font-size="20" font-weight="700" text-anchor="middle" fill="#111">UNIT 5 · FOOD &amp; EVERYDAY NEEDS</text><rect x="600" y="26" width="210" height="58" rx="29" fill="#fff" stroke="#111" stroke-width="2.8" stroke-linejoin="round" stroke-linecap="round"/><path d="M624.0,41.0 h42.0 a8,8 0 0 1 8,8 v18.2 a8,8 0 0 1 -8,8 h-26.599999999999998 l-9.799999999999999,9.799999999999999 v-9.799999999999999 h-5.6 a8,8 0 0 1 -8,-8 v-18.2 a8,8 0 0 1 8,-8 Z" fill="#fff" stroke="#111" stroke-width="3.8" stroke-linejoin="round" stroke-linecap="round"/><text x="685" y="65" font-family="'Arial Black','Arial',sans-serif" font-size="26" font-weight="700" text-anchor="start" fill="#111">SAY</text><text x="425.0" y="145" font-family="'Arial Black','Arial',sans-serif" font-size="52" text-anchor="middle" fill="#fff" stroke="#111" stroke-width="4.5" stroke-linejoin="round"></text><text x="425.0" y="185" font-family="'Arial Rounded MT Bold','Nunito','Arial',sans-serif" font-size="24" font-weight="700" text-anchor="middle" fill="#111">Circle a face. Say it.</text><text x="425.0" y="170" font-family="'Arial Black','Arial',sans-serif" font-size="52" text-anchor="middle" fill="#fff" stroke="#111" stroke-width="4.5" stroke-linejoin="round">I Like, I Don't Like</text><rect x="50" y="255" width="240" height="300" rx="18" fill="none" stroke="#111" stroke-width="2.8" stroke-linejoin="round" stroke-linecap="round"/><line x1="170" y1="313.0" x2="174.8" y2="287.8" fill="none" stroke="#111" stroke-width="3.8" stroke-linejoin="round" stroke-linecap="round"/><ellipse cx="190.4" cy="296.2" rx="16.8" ry="7.199999999999999" transform="rotate(-25 190.4 296.2)" fill="#fff" stroke="#111" stroke-width="2.8" stroke-linejoin="round" stroke-linecap="round"/><path d="M170,313.0 C152.0,295 110,301.0 110,346.0 C110,391.0 143.0,415 158.0,412.0 Q170,407.8 182.0,412.0 C197.0,415 230,391.0 230,346.0 C230,301.0 188.0,295 170,313.0 Z" fill="#fff" stroke="#111" stroke-width="5.0" stroke-linejoin="round" stroke-linecap="round"/><text x="170" y="462" font-family="'Arial Rounded MT Bold','Nunito','Arial',sans-serif" font-size="30" font-weight="700" text-anchor="middle" fill="#111">apple</text><circle cx="118" cy="507" r="32" fill="#fff" stroke="#111" stroke-width="5.0" stroke-linejoin="round" stroke-linecap="round"/><circle cx="106.48" cy="504.44" r="3.5999999999999996" fill="#111"/><circle cx="104.98" cy="502.94" r="1.2000000000000002" fill="#fff"/><circle cx="129.52" cy="504.44" r="3.5999999999999996" fill="#111"/><circle cx="128.02" cy="502.94" r="1.2000000000000002" fill="#fff"/><path d="M104.56,514.04 Q118,530.04 131.44,514.04 Z" fill="#fff" stroke="#111" stroke-width="3.3" stroke-linejoin="round" stroke-linecap="round"/><circle cx="222" cy="507" r="32" fill="#fff" stroke="#111" stroke-width="5.0" stroke-linejoin="round" stroke-linecap="round"/><circle cx="210.48" cy="504.44" r="3.5999999999999996" fill="#111"/><circle cx="208.98" cy="502.94" r="1.2000000000000002" fill="#fff"/><circle cx="233.52" cy="504.44" r="3.5999999999999996" fill="#111"/><circle cx="232.02" cy="502.94" r="1.2000000000000002" fill="#fff"/><path d="M210.48,524.6 Q222,513.4 233.52,524.6" fill="none" stroke="#111" stroke-width="3.3" stroke-linejoin="round" stroke-linecap="round"/><line x1="204.72" y1="498.04" x2="214.96" y2="492.92" fill="none" stroke="#111" stroke-width="2.8" stroke-linejoin="round" stroke-linecap="round"/><line x1="239.28" y1="498.04" x2="229.04" y2="492.92" fill="none" stroke="#111" stroke-width="2.8" stroke-linejoin="round" stroke-linecap="round"/><path d="M233.52,510.2 q-2.56,5.12 0,7.04 q2.56,-1.92 0,-7.04 Z" fill="#fff" stroke="#111" stroke-width="2.5" stroke-linejoin="round" stroke-linecap="round"/><rect x="305" y="255" width="240" height="300" rx="18" fill="none" stroke="#111" stroke-width="2.8" stroke-linejoin="round" stroke-linecap="round"/><rect x="313.2" y="293.0" width="20.8" height="18.2" rx="3.9000000000000004" transform="rotate(-35 323.6 302.1)" fill="#fff" stroke="#111" stroke-width="2.8" stroke-linejoin="round" stroke-linecap="round"/><path d="M328.8,311.2 Q386.0,425.6 518.6,355.4 L526.4,345.0 Q396.4,365.8 341.8,303.4 Z" fill="#fff" stroke="#111" stroke-width="5.0" stroke-linejoin="round" stroke-linecap="round"/><path d="M339.2,308.6 Q393.8,391.8 516.0,350.2" fill="none" stroke="#111" stroke-width="2.5" stroke-linejoin="round" stroke-linecap="round"/><text x="425" y="462" font-family="'Arial Rounded MT Bold','Nunito','Arial',sans-serif" font-size="30" font-weight="700" text-anchor="middle" fill="#111">banana</text><circle cx="373" cy="507" r="32" fill="#fff" stroke="#111" stroke-width="5.0" stroke-linejoin="round" stroke-linecap="round"/><circle cx="361.48" cy="504.44" r="3.5999999999999996" fill="#111"/><circle cx="359.98" cy="502.94" r="1.2000000000000002" fill="#fff"/><circle cx="384.52" cy="504.44" r="3.5999999999999996" fill="#111"/><circle cx="383.02" cy="502.94" r="1.2000000000000002" fill="#fff"/><path d="M359.56,514.04 Q373,530.04 386.44,514.04 Z" fill="#fff" stroke="#111" stroke-width="3.3" stroke-linejoin="round" stroke-linecap="round"/><circle cx="477" cy="507" r="32" fill="#fff" stroke="#111" stroke-width="5.0" stroke-linejoin="round" stroke-linecap="round"/><circle cx="465.48" cy="504.44" r="3.5999999999999996" fill="#111"/><circle cx="463.98" cy="502.94" r="1.2000000000000002" fill="#fff"/><circle cx="488.52" cy="504.44" r="3.5999999999999996" fill="#111"/><circle cx="487.02" cy="502.94" r="1.2000000000000002" fill="#fff"/><path d="M465.48,524.6 Q477,513.4 488.52,524.6" fill="none" stroke="#111" stroke-width="3.3" stroke-linejoin="round" stroke-linecap="round"/><line x1="459.72" y1="498.04" x2="469.96" y2="492.92" fill="none" stroke="#111" stroke-width="2.8" stroke-linejoin="round" stroke-linecap="round"/><line x1="494.28" y1="498.04" x2="484.04" y2="492.92" fill="none" stroke="#111" stroke-width="2.8" stroke-linejoin="round" stroke-linecap="round"/><path d="M488.52,510.2 q-2.56,5.12 0,7.04 q2.56,-1.92 0,-7.04 Z" fill="#fff" stroke="#111" stroke-width="2.5" stroke-linejoin="round" stroke-linecap="round"/><rect x="560" y="255" width="240" height="300" rx="18" fill="none" stroke="#111" stroke-width="2.8" stroke-linejoin="round" stroke-linecap="round"/><path d="M613.7,342 Q618.8,308.0 650.25,303.75 Q680,280.8 709.75,303.75 Q741.2,308.0 746.3,342 Z" fill="#fff" stroke="#111" stroke-width="5.0" stroke-linejoin="round" stroke-linecap="round"/><ellipse cx="646.0" cy="323.3" rx="5.95" ry="2.975" transform="rotate(20 646.0 323.3)" fill="#fff" stroke="#111" stroke-width="2" stroke-linejoin="round" stroke-linecap="round"/><ellipse cx="671.5" cy="308.0" rx="5.95" ry="2.975" transform="rotate(-15 671.5 308.0)" fill="#fff" stroke="#111" stroke-width="2" stroke-linejoin="round" stroke-linecap="round"/><ellipse cx="698.7" cy="321.6" rx="5.95" ry="2.975" transform="rotate(30 698.7 321.6)" fill="#fff" stroke="#111" stroke-width="2" stroke-linejoin="round" stroke-linecap="round"/><ellipse cx="720.8" cy="330.1" rx="5.95" ry="2.975" transform="rotate(-20 720.8 330.1)" fill="#fff" stroke="#111" stroke-width="2" stroke-linejoin="round" stroke-linecap="round"/><ellipse cx="680.0" cy="331.8" rx="5.95" ry="2.975" transform="rotate(60 680.0 331.8)" fill="#fff" stroke="#111" stroke-width="2" stroke-linejoin="round" stroke-linecap="round"/><rect x="652.8" y="401.5" width="54.4" height="15.299999999999999" rx="4.25" fill="#fff" stroke="#111" stroke-width="5.0" stroke-linejoin="round" stroke-linecap="round"/><path d="M607.75,342 Q612.0,408.3 680,408.3 Q748.0,408.3 752.25,342 Z" fill="#fff" stroke="#111" stroke-width="5.0" stroke-linejoin="round" stroke-linecap="round"/><path d="M629.0,365.8 Q680,376.0 731.0,365.8" fill="none" stroke="#111" stroke-width="2.8" stroke-linejoin="round" stroke-linecap="round"/><text x="680" y="462" font-family="'Arial Rounded MT Bold','Nunito','Arial',sans-serif" font-size="30" font-weight="700" text-anchor="middle" fill="#111">rice</text><circle cx="628" cy="507" r="32" fill="#fff" stroke="#111" stroke-width="5.0" stroke-linejoin="round" stroke-linecap="round"/><circle cx="616.48" cy="504.44" r="3.5999999999999996" fill="#111"/><circle cx="614.98" cy="502.94" r="1.2000000000000002" fill="#fff"/><circle cx="639.52" cy="504.44" r="3.5999999999999996" fill="#111"/><circle cx="638.02" cy="502.94" r="1.2000000000000002" fill="#fff"/><path d="M614.56,514.04 Q628,530.04 641.44,514.04 Z" fill="#fff" stroke="#111" stroke-width="3.3" stroke-linejoin="round" stroke-linecap="round"/><circle cx="732" cy="507" r="32" fill="#fff" stroke="#111" stroke-width="5.0" stroke-linejoin="round" stroke-linecap="round"/><circle cx="720.48" cy="504.44" r="3.5999999999999996" fill="#111"/><circle cx="718.98" cy="502.94" r="1.2000000000000002" fill="#fff"/><circle cx="743.52" cy="504.44" r="3.5999999999999996" fill="#111"/><circle cx="742.02" cy="502.94" r="1.2000000000000002" fill="#fff"/><path d="M720.48,524.6 Q732,513.4 743.52,524.6" fill="none" stroke="#111" stroke-width="3.3" stroke-linejoin="round" stroke-linecap="round"/><line x1="714.72" y1="498.04" x2="724.96" y2="492.92" fill="none" stroke="#111" stroke-width="2.8" stroke-linejoin="round" stroke-linecap="round"/><line x1="749.28" y1="498.04" x2="739.04" y2="492.92" fill="none" stroke="#111" stroke-width="2.8" stroke-linejoin="round" stroke-linecap="round"/><path d="M743.52,510.2 q-2.56,5.12 0,7.04 q2.56,-1.92 0,-7.04 Z" fill="#fff" stroke="#111" stroke-width="2.5" stroke-linejoin="round" stroke-linecap="round"/><rect x="50" y="570" width="240" height="300" rx="18" fill="none" stroke="#111" stroke-width="2.8" stroke-linejoin="round" stroke-linecap="round"/><path d="M85.0,715.0 L85.0,665.0 Q85.0,615.0 170,615.0 Q255.0,615.0 255.0,665.0 L255.0,715.0 Z" fill="#fff" stroke="#111" stroke-width="5.0" stroke-linejoin="round" stroke-linecap="round"/><line x1="116.0" y1="662.0" x2="144.0" y2="634.0" fill="none" stroke="#111" stroke-width="2.8" stroke-linejoin="round" stroke-linecap="round"/><line x1="156.0" y1="662.0" x2="184.0" y2="634.0" fill="none" stroke="#111" stroke-width="2.8" stroke-linejoin="round" stroke-linecap="round"/><line x1="196.0" y1="662.0" x2="224.0" y2="634.0" fill="none" stroke="#111" stroke-width="2.8" stroke-linejoin="round" stroke-linecap="round"/><text x="170" y="777" font-family="'Arial Rounded MT Bold','Nunito','Arial',sans-serif" font-size="30" font-weight="700" text-anchor="middle" fill="#111">bread</text><circle cx="118" cy="822" r="32" fill="#fff" stroke="#111" stroke-width="5.0" stroke-linejoin="round" stroke-linecap="round"/><circle cx="106.48" cy="819.44" r="3.5999999999999996" fill="#111"/><circle cx="104.98" cy="817.94" r="1.2000000000000002" fill="#fff"/><circle cx="129.52" cy="819.44" r="3.5999999999999996" fill="#111"/><circle cx="128.02" cy="817.94" r="1.2000000000000002" fill="#fff"/><path d="M104.56,829.04 Q118,845.04 131.44,829.04 Z" fill="#fff" stroke="#111" stroke-width="3.3" stroke-linejoin="round" stroke-linecap="round"/><circle cx="222" cy="822" r="32" fill="#fff" stroke="#111" stroke-width="5.0" stroke-linejoin="round" stroke-linecap="round"/><circle cx="210.48" cy="819.44" r="3.5999999999999996" fill="#111"/><circle cx="208.98" cy="817.94" r="1.2000000000000002" fill="#fff"/><circle cx="233.52" cy="819.44" r="3.5999999999999996" fill="#111"/><circle cx="232.02" cy="817.94" r="1.2000000000000002" fill="#fff"/><path d="M210.48,839.6 Q222,828.4 233.52,839.6" fill="none" stroke="#111" stroke-width="3.3" stroke-linejoin="round" stroke-linecap="round"/><line x1="204.72" y1="813.0400000000001" x2="214.96" y2="807.9200000000001" fill="none" stroke="#111" stroke-width="2.8" stroke-linejoin="round" stroke-linecap="round"/><line x1="239.28" y1="813.0400000000001" x2="229.04" y2="807.9200000000001" fill="none" stroke="#111" stroke-width="2.8" stroke-linejoin="round" stroke-linecap="round"/><path d="M233.52,825.2 q-2.56,5.12 0,7.04 q2.56,-1.92 0,-7.04 Z" fill="#fff" stroke="#111" stroke-width="2.5" stroke-linejoin="round" stroke-linecap="round"/><rect x="305" y="570" width="240" height="300" rx="18" fill="none" stroke="#111" stroke-width="2.8" stroke-linejoin="round" stroke-linecap="round"/><rect x="401.0" y="595.4" width="48.0" height="11.200000000000001" rx="2.4000000000000004" fill="#fff" stroke="#111" stroke-width="2.8" stroke-linejoin="round" stroke-linecap="round"/><path d="M389.0,641.0 L401.0,605.8 L449.0,605.8 L461.0,641.0 Z" fill="#fff" stroke="#111" stroke-width="5.0" stroke-linejoin="round" stroke-linecap="round"/><rect x="389.0" y="641.0" width="72.0" height="96.0" rx="3.2" fill="#fff" stroke="#111" stroke-width="5.0" stroke-linejoin="round" stroke-linecap="round"/><rect x="399.4" y="669.0" width="51.2" height="35.2" rx="6.4" fill="#fff" stroke="#111" stroke-width="2.8" stroke-linejoin="round" stroke-linecap="round"/><text x="425" y="693.0" font-family="'Arial Black','Arial',sans-serif" font-size="16.0" font-weight="700" text-anchor="middle" fill="#111">MILK</text><text x="425" y="777" font-family="'Arial Rounded MT Bold','Nunito','Arial',sans-serif" font-size="30" font-weight="700" text-anchor="middle" fill="#111">milk</text><circle cx="373" cy="822" r="32" fill="#fff" stroke="#111" stroke-width="5.0" stroke-linejoin="round" stroke-linecap="round"/><circle cx="361.48" cy="819.44" r="3.5999999999999996" fill="#111"/><circle cx="359.98" cy="817.94" r="1.2000000000000002" fill="#fff"/><circle cx="384.52" cy="819.44" r="3.5999999999999996" fill="#111"/><circle cx="383.02" cy="817.94" r="1.2000000000000002" fill="#fff"/><path d="M359.56,829.04 Q373,845.04 386.44,829.04 Z" fill="#fff" stroke="#111" stroke-width="3.3" stroke-linejoin="round" stroke-linecap="round"/><circle cx="477" cy="822" r="32" fill="#fff" stroke="#111" stroke-width="5.0" stroke-linejoin="round" stroke-linecap="round"/><circle cx="465.48" cy="819.44" r="3.5999999999999996" fill="#111"/><circle cx="463.98" cy="817.94" r="1.2000000000000002" fill="#fff"/><circle cx="488.52" cy="819.44" r="3.5999999999999996" fill="#111"/><circle cx="487.02" cy="817.94" r="1.2000000000000002" fill="#fff"/><path d="M465.48,839.6 Q477,828.4 488.52,839.6" fill="none" stroke="#111" stroke-width="3.3" stroke-linejoin="round" stroke-linecap="round"/><line x1="459.72" y1="813.0400000000001" x2="469.96" y2="807.9200000000001" fill="none" stroke="#111" stroke-width="2.8" stroke-linejoin="round" stroke-linecap="round"/><line x1="494.28" y1="813.0400000000001" x2="484.04" y2="807.9200000000001" fill="none" stroke="#111" stroke-width="2.8" stroke-linejoin="round" stroke-linecap="round"/><path d="M488.52,825.2 q-2.56,5.12 0,7.04 q2.56,-1.92 0,-7.04 Z" fill="#fff" stroke="#111" stroke-width="2.5" stroke-linejoin="round" stroke-linecap="round"/><rect x="560" y="570" width="240" height="300" rx="18" fill="none" stroke="#111" stroke-width="2.8" stroke-linejoin="round" stroke-linecap="round"/><rect x="667.25" y="592.0" width="25.5" height="18.0" rx="3.75" fill="#fff" stroke="#111" stroke-width="5.0" stroke-linejoin="round" stroke-linecap="round"/><path d="M669.5,610.0 L669.5,617.5 Q650.0,623.5 650.0,640.75 L650.0,730.0 Q650.0,742.0 662.0,742.0 L698.0,742.0 Q710.0,742.0 710.0,730.0 L710.0,640.75 Q710.0,623.5 690.5,617.5 L690.5,610.0 Z" fill="#fff" stroke="#111" stroke-width="5.0" stroke-linejoin="round" stroke-linecap="round"/><rect x="650.0" y="663.25" width="60.0" height="41.25" fill="#fff" stroke="#111" stroke-width="2.8" stroke-linejoin="round" stroke-linecap="round"/><path d="M680,668.5 Q692.0,686.5 680,698.5 Q668.0,686.5 680,668.5 Z" fill="#fff" stroke="#111" stroke-width="2.8" stroke-linejoin="round" stroke-linecap="round"/><text x="680" y="777" font-family="'Arial Rounded MT Bold','Nunito','Arial',sans-serif" font-size="30" font-weight="700" text-anchor="middle" fill="#111">water</text><circle cx="628" cy="822" r="32" fill="#fff" stroke="#111" stroke-width="5.0" stroke-linejoin="round" stroke-linecap="round"/><circle cx="616.48" cy="819.44" r="3.5999999999999996" fill="#111"/><circle cx="614.98" cy="817.94" r="1.2000000000000002" fill="#fff"/><circle cx="639.52" cy="819.44" r="3.5999999999999996" fill="#111"/><circle cx="638.02" cy="817.94" r="1.2000000000000002" fill="#fff"/><path d="M614.56,829.04 Q628,845.04 641.44,829.04 Z" fill="#fff" stroke="#111" stroke-width="3.3" stroke-linejoin="round" stroke-linecap="round"/><circle cx="732" cy="822" r="32" fill="#fff" stroke="#111" stroke-width="5.0" stroke-linejoin="round" stroke-linecap="round"/><circle cx="720.48" cy="819.44" r="3.5999999999999996" fill="#111"/><circle cx="718.98" cy="817.94" r="1.2000000000000002" fill="#fff"/><circle cx="743.52" cy="819.44" r="3.5999999999999996" fill="#111"/><circle cx="742.02" cy="817.94" r="1.2000000000000002" fill="#fff"/><path d="M720.48,839.6 Q732,828.4 743.52,839.6" fill="none" stroke="#111" stroke-width="3.3" stroke-linejoin="round" stroke-linecap="round"/><line x1="714.72" y1="813.0400000000001" x2="724.96" y2="807.9200000000001" fill="none" stroke="#111" stroke-width="2.8" stroke-linejoin="round" stroke-linecap="round"/><line x1="749.28" y1="813.0400000000001" x2="739.04" y2="807.9200000000001" fill="none" stroke="#111" stroke-width="2.8" stroke-linejoin="round" stroke-linecap="round"/><path d="M743.52,825.2 q-2.56,5.12 0,7.04 q2.56,-1.92 0,-7.04 Z" fill="#fff" stroke="#111" stroke-width="2.5" stroke-linejoin="round" stroke-linecap="round"/><text x="425.0" y="930" font-family="'Arial Rounded MT Bold','Nunito','Arial',sans-serif" font-size="32" font-weight="700" text-anchor="middle" fill="#111">I like ___.     I don't like ___.</text><rect x="40" y="980" width="770" height="88" rx="18" fill="#fff" stroke="#111" stroke-width="2.8" stroke-linejoin="round" stroke-linecap="round"/><text x="62" y="1012" font-family="'Arial Rounded MT Bold','Nunito','Arial',sans-serif" font-size="17" font-weight="700" text-anchor="start" fill="#111">Words: apple · banana · rice · bread · milk · water · like</text><text x="62" y="1042" font-family="'Arial Rounded MT Bold','Nunito','Arial',sans-serif" font-size="15" font-weight="400" text-anchor="start" fill="#111">Mrs. B tip: Do you like bananas? Say: I like bananas.</text><text x="785" y="1045" font-family="'Arial Black','Arial',sans-serif" font-size="24" font-weight="700" text-anchor="end" fill="#111">22</text></svg>