<svg xmlns="http://www.w3.org/2000/svg" viewBox="0 0 850 1100" width="850" height="1100"><rect width="850" height="1100" fill="#fff"/><rect x="40" y="32" width="339.0" height="46" rx="23" fill="#fff" stroke="#111" stroke-width="2.8" stroke-linejoin="round" stroke-linecap="round"/><text x="209.5" y="63" font-family="'Arial Rounded MT Bold','Nunito','Arial',sans-serif" font-size="20" font-weight="700" text-anchor="middle" fill="#111">UNIT 6 · ANIMALS &amp; ACTIONS</text><rect x="600" y="26" width="210" height="58" rx="29" fill="#fff" stroke="#111" stroke-width="2.8" stroke-linejoin="round" stroke-linecap="round"/><polygon points="645.0,35.4 639.7,47.7 626.4,48.9 636.4,57.8 633.5,70.9 645.0,64.0 656.5,70.9 653.6,57.8 663.6,48.9 650.3,47.7" fill="#fff" stroke="#111" stroke-width="3.8" stroke-linejoin="round" stroke-linecap="round"/><text x="685" y="65" font-family="'Arial Black','Arial',sans-serif" font-size="26" font-weight="700" text-anchor="start" fill="#111">USE</text><text x="425.0" y="145" font-family="'Arial Black','Arial',sans-serif" font-size="52" text-anchor="middle" fill="#fff" stroke="#111" stroke-width="4.5" stroke-linejoin="round">I Can!</text><text x="425.0" y="185" font-family="'Arial Rounded MT Bold','Nunito','Arial',sans-serif" font-size="24" font-weight="700" text-anchor="middle" fill="#111">Act it. Draw you. Write.</text><rect x="50" y="260" width="400" height="530" rx="16" fill="#fff" stroke="#111" stroke-width="5.0" stroke-linejoin="round" stroke-linecap="round"/><rect x="72" y="282" width="356" height="486" rx="10" fill="none" stroke="#111" stroke-width="2.8" stroke-linejoin="round" stroke-linecap="round"/><rect x="212.20000000000002" y="547.875" width="29.400000000000002" height="99.75" rx="10.5" fill="#fff" stroke="#111" stroke-width="5.0" stroke-linejoin="round" stroke-linecap="round"/><path d="M205.9,647.625 L252.10000000000002,647.625 Q260.5,661.275 250.0,671.775 L205.9,671.775 Z" fill="#fff" stroke="#111" stroke-width="5.0" stroke-linejoin="round" stroke-linecap="round"/><line x1="205.9" y1="663.375" x2="256.3" y2="663.375" fill="none" stroke="#111" stroke-width="2.8" stroke-linejoin="round" stroke-linecap="round"/><rect x="258.40000000000003" y="547.875" width="29.400000000000002" height="99.75" rx="10.5" fill="#fff" stroke="#111" stroke-width="5.0" stroke-linejoin="round" stroke-linecap="round"/><path d="M252.10000000000002,647.625 L298.3,647.625 Q306.70000000000005,661.275 296.20000000000005,671.775 L252.10000000000002,671.775 Z" fill="#fff" stroke="#111" stroke-width="5.0" stroke-linejoin="round" stroke-linecap="round"/><line x1="252.10000000000002" y1="663.375" x2="302.5" y2="663.375" fill="none" stroke="#111" stroke-width="2.8" stroke-linejoin="round" stroke-linecap="round"/><line x1="201.7" y1="455.475" x2="154.45" y2="360.975" stroke="#111" stroke-width="34.400000000000006" stroke-linecap="round"/><line x1="201.7" y1="455.475" x2="154.45" y2="360.975" stroke="#fff" stroke-width="26.400000000000002" stroke-linecap="round"/><circle cx="154.45" cy="360.975" r="14.700000000000001" fill="#fff" stroke="#111" stroke-width="2.8" stroke-linejoin="round" stroke-linecap="round"/><line x1="298.3" y1="455.475" x2="345.55" y2="360.975" stroke="#111" stroke-width="34.400000000000006" stroke-linecap="round"/><line x1="298.3" y1="455.475" x2="345.55" y2="360.975" stroke="#fff" stroke-width="26.400000000000002" stroke-linecap="round"/><circle cx="345.55" cy="360.975" r="14.700000000000001" fill="#fff" stroke="#111" stroke-width="2.8" stroke-linejoin="round" stroke-linecap="round"/><path d="M197.5,451.275 Q197.5,432.375 220.6,432.375 L279.4,432.375 Q302.5,432.375 302.5,451.275 L302.5,558.375 L197.5,558.375 Z" fill="#fff" stroke="#111" stroke-width="5.0" stroke-linejoin="round" stroke-linecap="round"/><path d="M231.1,432.375 Q250,453.375 268.9,432.375" fill="none" stroke="#111" stroke-width="2.8" stroke-linejoin="round" stroke-linecap="round"/><rect x="237.4" y="424.5" width="25.200000000000003" height="15.75" fill="#fff" stroke="#111" stroke-width="2.8" stroke-linejoin="round" stroke-linecap="round"/><circle cx="250" cy="382.5" r="52.5" fill="#fff" stroke="#111" stroke-width="5.0" stroke-linejoin="round" stroke-linecap="round"/><circle cx="203.8" cy="336.3" r="24.150000000000002" fill="#fff" stroke="#111" stroke-width="5.0" stroke-linejoin="round" stroke-linecap="round"/><circle cx="296.2" cy="336.3" r="24.150000000000002" fill="#fff" stroke="#111" stroke-width="5.0" stroke-linejoin="round" stroke-linecap="round"/><circle cx="231.1" cy="378.3" r="5.669999999999999" fill="#111"/><circle cx="229.6" cy="376.8" r="1.89" fill="#fff"/><circle cx="268.9" cy="378.3" r="5.669999999999999" fill="#111"/><circle cx="267.4" cy="376.8" r="1.89" fill="#fff"/><path d="M227.95,394.05 Q250,420.3 272.05,394.05 Z" fill="#fff" stroke="#111" stroke-width="3.3" stroke-linejoin="round" stroke-linecap="round"/><path d="M130,420 q-20,-20 0,-40" fill="none" stroke="#111" stroke-width="2.8" stroke-linejoin="round" stroke-linecap="round"/><path d="M110,440 q-28,-30 0,-60" fill="none" stroke="#111" stroke-width="2.8" stroke-linejoin="round" stroke-linecap="round"/><path d="M370,420 q20,-20 0,-40" fill="none" stroke="#111" stroke-width="2.8" stroke-linejoin="round" stroke-linecap="round"/><path d="M390,440 q28,-30 0,-60" fill="none" stroke="#111" stroke-width="2.8" stroke-linejoin="round" stroke-linecap="round"/><line x1="110" y1="700" x2="390" y2="700" stroke="#111" stroke-width="3" stroke-dasharray="12 10"/><text x="60" y="890" font-family="'Arial Black','Arial',sans-serif" font-size="44" font-weight="700" text-anchor="start" fill="#111">I can</text><line x1="200" y1="830" x2="450" y2="830" stroke="#111" stroke-width="2.5"/><line x1="200" y1="875.0" x2="450" y2="875.0" stroke="#111" stroke-width="2" stroke-dasharray="10 8"/><line x1="200" y1="920" x2="450" y2="920" stroke="#111" stroke-width="3.5"/><rect x="480" y="262" width="152" height="132" rx="18" fill="#fff" stroke="#111" stroke-width="3.8" stroke-linejoin="round" stroke-linecap="round"/><path d="M529.75,289.5 L552.25,289.5 Q559.75,308.25 586.0,312 Q599.5,315.0 599.5,327.0 L529.75,327.0 Z" fill="#fff" stroke="#111" stroke-width="3.8" stroke-linejoin="round" stroke-linecap="round"/><line x1="529.75" y1="318.0" x2="599.5" y2="318.0" fill="none" stroke="#111" stroke-width="2.8" stroke-linejoin="round" stroke-linecap="round"/><line x1="520.8" y1="291.1" x2="492.4" y2="291.1" fill="none" stroke="#111" stroke-width="3.3" stroke-linejoin="round" stroke-linecap="round"/><line x1="511.3" y1="306.0" x2="482.9" y2="306.0" fill="none" stroke="#111" stroke-width="3.3" stroke-linejoin="round" stroke-linecap="round"/><line x1="520.8" y1="320.9" x2="492.4" y2="320.9" fill="none" stroke="#111" stroke-width="3.3" stroke-linejoin="round" stroke-linecap="round"/><text x="556" y="380" font-family="'Arial Rounded MT Bold','Nunito','Arial',sans-serif" font-size="30" font-weight="700" text-anchor="middle" fill="#111">run</text><rect x="648" y="262" width="152" height="132" rx="18" fill="#fff" stroke="#111" stroke-width="3.8" stroke-linejoin="round" stroke-linecap="round"/><line x1="680.5" y1="334.5" x2="767.5" y2="334.5" fill="none" stroke="#111" stroke-width="3.8" stroke-linejoin="round" stroke-linecap="round"/><path d="M690.25,328.5 Q724,255.75 755.5,322.5" fill="none" stroke="#111" stroke-width="3.8" stroke-dasharray="10 8" stroke-linecap="round"/><polygon points="761.5,328.5 745.0,319.5 760.0,310.5" fill="#111" stroke="#111" stroke-width="3" stroke-linejoin="round"/><text x="724" y="380" font-family="'Arial Rounded MT Bold','Nunito','Arial',sans-serif" font-size="30" font-weight="700" text-anchor="middle" fill="#111">jump</text><rect x="480" y="408" width="152" height="132" rx="18" fill="#fff" stroke="#111" stroke-width="3.8" stroke-linejoin="round" stroke-linecap="round"/><path d="M514.75,440.0 q10.5,-10.5 20.25,0 t20.25,0 t20.25,0 t20.25,0" fill="none" stroke="#111" stroke-width="3.8" stroke-linejoin="round" stroke-linecap="round"/><path d="M514.75,458.0 q10.5,-10.5 20.25,0 t20.25,0 t20.25,0 t20.25,0" fill="none" stroke="#111" stroke-width="3.8" stroke-linejoin="round" stroke-linecap="round"/><path d="M514.75,476.0 q10.5,-10.5 20.25,0 t20.25,0 t20.25,0 t20.25,0" fill="none" stroke="#111" stroke-width="3.8" stroke-linejoin="round" stroke-linecap="round"/><text x="556" y="526" font-family="'Arial Rounded MT Bold','Nunito','Arial',sans-serif" font-size="30" font-weight="700" text-anchor="middle" fill="#111">swim</text><rect x="648" y="408" width="152" height="132" rx="18" fill="#fff" stroke="#111" stroke-width="3.8" stroke-linejoin="round" stroke-linecap="round"/><path d="M719.5,474.5 Q716.5,435.5 680.5,428.0 Q686.5,440.0 680.5,446.0 Q692.5,455.0 688.0,462.5 Q701.5,468.5 719.5,474.5 Z" fill="#fff" stroke="#111" stroke-width="3.8" stroke-linejoin="round" stroke-linecap="round"/><path d="M728.5,474.5 Q731.5,435.5 767.5,428.0 Q761.5,440.0 767.5,446.0 Q755.5,455.0 760.0,462.5 Q746.5,468.5 728.5,474.5 Z" fill="#fff" stroke="#111" stroke-width="3.8" stroke-linejoin="round" stroke-linecap="round"/><text x="724" y="526" font-family="'Arial Rounded MT Bold','Nunito','Arial',sans-serif" font-size="30" font-weight="700" text-anchor="middle" fill="#111">fly</text><polygon points="590,905 560,970 600,955 620,975 640,915" fill="#fff" stroke="#111" stroke-width="5.0" stroke-linejoin="round" stroke-linecap="round"/><polygon points="690,905 720,970 680,955 660,975 640,915" fill="#fff" stroke="#111" stroke-width="5.0" stroke-linejoin="round" stroke-linecap="round"/><circle cx="640" cy="760" r="150" fill="#fff" stroke="#111" stroke-width="5.0" stroke-linejoin="round" stroke-linecap="round"/><circle cx="640" cy="760" r="132" fill="none" stroke="#111" stroke-width="2.8" stroke-linejoin="round" stroke-linecap="round"/><ellipse cx="640" cy="664.7520000000001" rx="23.2254" ry="20.196" fill="#fff" stroke="#111" stroke-width="5.0" stroke-linejoin="round" stroke-linecap="round"/><circle cx="661.2058" cy="664.7520000000001" r="5.7024" fill="#fff" stroke="#111" stroke-width="2.8" stroke-linejoin="round" stroke-linecap="round"/><circle cx="656.2445852518924" cy="676.4355647087065" r="5.7024" fill="#fff" stroke="#111" stroke-width="2.8" stroke-linejoin="round" stroke-linecap="round"/><circle cx="643.6823485259694" cy="682.6522596418512" r="5.7024" fill="#fff" stroke="#111" stroke-width="2.8" stroke-linejoin="round" stroke-linecap="round"/><circle cx="629.3971" cy="680.4932241493475" r="5.7024" fill="#fff" stroke="#111" stroke-width="2.8" stroke-linejoin="round" stroke-linecap="round"/><circle cx="620.0730662221382" cy="670.9686949331448" r="5.7024" fill="#fff" stroke="#111" stroke-width="2.8" stroke-linejoin="round" stroke-linecap="round"/><circle cx="620.0730662221382" cy="658.5353050668554" r="5.7024" fill="#fff" stroke="#111" stroke-width="2.8" stroke-linejoin="round" stroke-linecap="round"/><circle cx="629.3971" cy="649.0107758506526" r="5.7024" fill="#fff" stroke="#111" stroke-width="2.8" stroke-linejoin="round" stroke-linecap="round"/><circle cx="643.6823485259694" cy="646.851740358149" r="5.7024" fill="#fff" stroke="#111" stroke-width="2.8" stroke-linejoin="round" stroke-linecap="round"/><circle cx="656.2445852518924" cy="653.0684352912937" r="5.7024" fill="#fff" stroke="#111" stroke-width="2.8" stroke-linejoin="round" stroke-linecap="round"/><circle cx="631.684" cy="660.0000000000001" r="5.227200000000001" fill="#fff" stroke="#111" stroke-width="2.8" stroke-linejoin="round" stroke-linecap="round"/><circle cx="648.316" cy="660.0000000000001" r="5.227200000000001" fill="#fff" stroke="#111" stroke-width="2.8" stroke-linejoin="round" stroke-linecap="round"/><circle cx="640.0" cy="670.6920000000001" r="5.227200000000001" fill="#fff" stroke="#111" stroke-width="2.8" stroke-linejoin="round" stroke-linecap="round"/><circle cx="630.496" cy="671.8800000000001" r="5.227200000000001" fill="#fff" stroke="#111" stroke-width="2.8" stroke-linejoin="round" stroke-linecap="round"/><circle cx="649.504" cy="671.8800000000001" r="5.227200000000001" fill="#fff" stroke="#111" stroke-width="2.8" stroke-linejoin="round" stroke-linecap="round"/><ellipse cx="640" cy="674.256" rx="15.444" ry="4.2768" fill="#fff" stroke="#111" stroke-width="3.3" stroke-linejoin="round" stroke-linecap="round"/><path d="M636.48,798.248 L638.8032,877.4480000000001 L610.08,877.4480000000001 L611.576,771.8480000000001 Z" fill="#fff" stroke="#111" stroke-width="5.0" stroke-linejoin="round" stroke-linecap="round"/><line x1="638.8032" y1="877.4480000000001" x2="610.08" y2="877.4480000000001" fill="none" stroke="#111" stroke-width="2.8" stroke-linejoin="round" stroke-linecap="round"/><path d="M612.1216,877.4480000000001 L638.5216,877.4480000000001 Q642.0416,886.248 637.6416,893.2880000000001 L612.1216,893.2880000000001 Q609.4816,885.368 612.1216,877.4480000000001 Z" fill="#fff" stroke="#111" stroke-width="5.0" stroke-linejoin="round" stroke-linecap="round"/><path d="M630.6016,881.8480000000001 Q638.5216,885.368 635.0015999999999,893.2880000000001" fill="none" stroke="#111" stroke-width="2.8" stroke-linejoin="round" stroke-linecap="round"/><line x1="610.3616" y1="890.6480000000001" x2="640.2816" y2="890.6480000000001" fill="none" stroke="#111" stroke-width="2.8" stroke-linejoin="round" stroke-linecap="round"/><line x1="620.0416" y1="880.9680000000001" x2="627.0816" y2="884.488" fill="none" stroke="#111" stroke-width="1.8" stroke-linejoin="round" stroke-linecap="round"/><line x1="620.0416" y1="884.488" x2="627.0816" y2="880.9680000000001" fill="none" stroke="#111" stroke-width="1.8" stroke-linejoin="round" stroke-linecap="round"/><path d="M643.52,798.248 L641.1968,877.4480000000001 L669.92,877.4480000000001 L668.424,771.8480000000001 Z" fill="#fff" stroke="#111" stroke-width="5.0" stroke-linejoin="round" stroke-linecap="round"/><line x1="641.1968" y1="877.4480000000001" x2="669.92" y2="877.4480000000001" fill="none" stroke="#111" stroke-width="2.8" stroke-linejoin="round" stroke-linecap="round"/><path d="M643.2384,877.4480000000001 L669.6384,877.4480000000001 Q673.1584,886.248 668.7584,893.2880000000001 L643.2384,893.2880000000001 Q640.5984,885.368 643.2384,877.4480000000001 Z" fill="#fff" stroke="#111" stroke-width="5.0" stroke-linejoin="round" stroke-linecap="round"/><path d="M661.7184,881.8480000000001 Q669.6384,885.368 666.1184,893.2880000000001" fill="none" stroke="#111" stroke-width="2.8" stroke-linejoin="round" stroke-linecap="round"/><line x1="641.4784" y1="890.6480000000001" x2="671.3984" y2="890.6480000000001" fill="none" stroke="#111" stroke-width="2.8" stroke-linejoin="round" stroke-linecap="round"/><line x1="651.1584" y1="880.9680000000001" x2="658.1984" y2="884.488" fill="none" stroke="#111" stroke-width="1.8" stroke-linejoin="round" stroke-linecap="round"/><line x1="651.1584" y1="884.488" x2="658.1984" y2="880.9680000000001" fill="none" stroke="#111" stroke-width="1.8" stroke-linejoin="round" stroke-linecap="round"/><rect x="613.072" y="766.5680000000001" width="53.856" height="6.16" rx="1.76" fill="#fff" stroke="#111" stroke-width="2.8" stroke-linejoin="round" stroke-linecap="round"/><rect x="635.6" y="765.6880000000001" width="8.8" height="7.92" rx="1.32" fill="#fff" stroke="#111" stroke-width="3.8" stroke-linejoin="round" stroke-linecap="round"/><path d="M609.2,724.328 Q609.2,714.648 621.5200000000001,714.648 L658.4799999999999,714.648 Q670.8,714.648 670.8,724.328 L672.032,789.4480000000001 L607.968,789.4480000000001 Z" fill="#fff" stroke="#111" stroke-width="5.0" stroke-linejoin="round" stroke-linecap="round"/><path d="M628.56,714.648 L630.848,789.4480000000001 L607.968,789.4480000000001 L609.2,724.328 Z" fill="#fff" stroke="#111" stroke-width="2.8" stroke-linejoin="round" stroke-linecap="round"/><path d="M651.44,714.648 L649.152,789.4480000000001 L672.032,789.4480000000001 L670.8,724.328 Z" fill="#fff" stroke="#111" stroke-width="2.8" stroke-linejoin="round" stroke-linecap="round"/><rect x="611.664" y="767.4480000000001" width="15.84" height="19.36" rx="2.64" fill="#fff" stroke="#111" stroke-width="2.8" stroke-linejoin="round" stroke-linecap="round"/><rect x="652.496" y="767.4480000000001" width="15.84" height="19.36" rx="2.64" fill="#fff" stroke="#111" stroke-width="2.8" stroke-linejoin="round" stroke-linecap="round"/><path d="M632.96,715.528 L640,750.7280000000001 L647.04,715.528" fill="none" stroke="#111" stroke-width="3.3" stroke-linejoin="round" stroke-linecap="round"/><rect x="637.8" y="750.7280000000001" width="4.4" height="3.52" rx="0.88" fill="#fff" stroke="#111" stroke-width="2.8" stroke-linejoin="round" stroke-linecap="round"/><rect x="632.08" y="754.248" width="15.84" height="21.12" rx="2.2" fill="#fff" stroke="#111" stroke-width="5.0" stroke-linejoin="round" stroke-linecap="round"/><circle cx="640" cy="756.888" r="1.32" fill="#111"/><text x="640" y="766.5680000000001" font-family="'Arial Black','Arial',sans-serif" font-size="9" font-weight="700" text-anchor="middle" fill="#111">B</text><text x="640" y="771.8480000000001" font-family="'Arial Rounded MT Bold','Nunito','Arial',sans-serif" font-size="5" font-weight="700" text-anchor="middle" fill="#111">♡</text><path d="M612.896,726.0880000000001 Q604.272,748.0880000000001 612.896,776.6880000000001" stroke="#111" stroke-width="19.08" stroke-linecap="round" fill="none"/><path d="M612.896,726.0880000000001 Q604.272,748.0880000000001 612.896,776.6880000000001" stroke="#fff" stroke-width="11.08" stroke-linecap="round" fill="none"/><g transform="rotate(-8 608.496 759.0880000000001)"><rect x="592.656" y="759.0880000000001" width="31.68" height="43.12" rx="2.64" fill="#fff" stroke="#111" stroke-width="5.0" stroke-linejoin="round" stroke-linecap="round"/><rect x="596.1759999999999" y="762.6080000000001" width="24.64" height="36.08" rx="1.76" fill="none" stroke="#111" stroke-width="2.8" stroke-linejoin="round" stroke-linecap="round"/><text x="608.496" y="772.2880000000001" font-family="'Arial Black','Arial',sans-serif" font-size="6" font-weight="700" text-anchor="middle" fill="#111">Kind</text><text x="608.496" y="779.3280000000001" font-family="'Arial Black','Arial',sans-serif" font-size="5" font-weight="700" text-anchor="middle" fill="#111">English</text><text x="608.496" y="786.368" font-family="'Arial Black','Arial',sans-serif" font-size="4" font-weight="700" text-anchor="middle" fill="#111">Brighter</text><text x="608.496" y="792.528" font-family="'Arial Rounded MT Bold','Nunito','Arial',sans-serif" font-size="4" font-weight="700" text-anchor="middle" fill="#111">Futures ♡</text></g><ellipse cx="612.896" cy="781.0880000000001" rx="6.16" ry="5.28" fill="#fff" stroke="#111" stroke-width="3.8" stroke-linejoin="round" stroke-linecap="round"/><rect x="633.4" y="709.8960000000001" width="13.2" height="9.0288" fill="#fff" stroke="#111" stroke-width="2.8" stroke-linejoin="round" stroke-linecap="round"/><circle cx="640" cy="692.076" r="23.76" fill="#fff" stroke="#111" stroke-width="5.0" stroke-linejoin="round" stroke-linecap="round"/><circle cx="615.2896" cy="700.392" r="5.227200000000001" fill="#fff" stroke="#111" stroke-width="3.8" stroke-linejoin="round" stroke-linecap="round"/><circle cx="615.2896" cy="700.392" r="3.3264000000000005" fill="#fff" stroke="#111" stroke-width="2.8"/><circle cx="664.7104" cy="700.392" r="5.227200000000001" fill="#fff" stroke="#111" stroke-width="3.8" stroke-linejoin="round" stroke-linecap="round"/><circle cx="664.7104" cy="700.392" r="3.3264000000000005" fill="#fff" stroke="#111" stroke-width="2.8"/><path d="M636.1984,683.9976 Q630.9712,680.6712 625.7439999999999,684.7103999999999" fill="none" stroke="#111" stroke-width="3.8" stroke-linejoin="round" stroke-linecap="round"/><ellipse cx="630.9712" cy="690.6504" rx="5.227200000000001" ry="3.8016000000000005" fill="#fff" stroke="#111" stroke-width="3.8" stroke-linejoin="round" stroke-linecap="round"/><circle cx="630.0912" cy="690.6504" r="2.6136000000000004" fill="#111"/><circle cx="629.2112" cy="689.7704" r="0.9504000000000001" fill="#fff"/><line x1="626.6944" y1="687.7992" x2="624.3184" y2="685.4232" fill="none" stroke="#111" stroke-width="2.8" stroke-linejoin="round" stroke-linecap="round"/><path d="M643.8016,683.9976 Q649.0288,680.6712 654.2560000000001,684.7103999999999" fill="none" stroke="#111" stroke-width="3.8" stroke-linejoin="round" stroke-linecap="round"/><ellipse cx="649.0288" cy="690.6504" rx="5.227200000000001" ry="3.8016000000000005" fill="#fff" stroke="#111" stroke-width="3.8" stroke-linejoin="round" stroke-linecap="round"/><circle cx="649.9088" cy="690.6504" r="2.6136000000000004" fill="#111"/><circle cx="649.0288" cy="689.7704" r="0.9504000000000001" fill="#fff"/><line x1="653.3056" y1="687.7992" x2="655.6816" y2="685.4232" fill="none" stroke="#111" stroke-width="2.8" stroke-linejoin="round" stroke-linecap="round"/><path d="M637.8,696.3528 Q640,697.7784 642.2,696.3528" fill="none" stroke="#111" stroke-width="2.8" stroke-linejoin="round" stroke-linecap="round"/><path d="M630.0208,701.1048000000001 Q640,711.5592 649.9792,701.1048000000001 Z" fill="#fff" stroke="#111" stroke-width="3.8" stroke-linejoin="round" stroke-linecap="round"/><line x1="631.9216" y1="702.5304" x2="648.0784" y2="702.5304" fill="none" stroke="#111" stroke-width="2.8" stroke-linejoin="round" stroke-linecap="round"/><rect x="40" y="980" width="770" height="88" rx="18" fill="#fff" stroke="#111" stroke-width="2.8" stroke-linejoin="round" stroke-linecap="round"/><text x="62" y="1012" font-family="'Arial Rounded MT Bold','Nunito','Arial',sans-serif" font-size="17" font-weight="700" text-anchor="start" fill="#111">Words: I can · run · jump · swim · fly</text><text x="62" y="1042" font-family="'Arial Rounded MT Bold','Nunito','Arial',sans-serif" font-size="15" font-weight="400" text-anchor="start" fill="#111">Mrs. B tip: Say: 'Show me! What can you do?' Then write it.</text><text x="785" y="1045" font-family="'Arial Black','Arial',sans-serif" font-size="24" font-weight="700" text-anchor="end" fill="#111">30</text></svg>