<svg xmlns="http://www.w3.org/2000/svg" viewBox="0 0 850 1100" width="850" height="1100"><rect width="850" height="1100" fill="#fff"/><rect x="40" y="32" width="339.0" height="46" rx="23" fill="#fff" stroke="#111" stroke-width="2.8" stroke-linejoin="round" stroke-linecap="round"/><text x="209.5" y="63" font-family="'Arial Rounded MT Bold','Nunito','Arial',sans-serif" font-size="20" font-weight="700" text-anchor="middle" fill="#111">UNIT 6 · ANIMALS &amp; ACTIONS</text><rect x="600" y="26" width="210" height="58" rx="29" fill="#fff" stroke="#111" stroke-width="2.8" stroke-linejoin="round" stroke-linecap="round"/><path d="M624.0,55 Q645,35.400000000000006 666.0,55 Q645,74.6 624.0,55 Z" fill="#fff" stroke="#111" stroke-width="3.8" stroke-linejoin="round" stroke-linecap="round"/><circle cx="645" cy="55" r="7.0" fill="#111"/><circle cx="643.6" cy="53.6" r="2.0999999999999996" fill="#fff"/><text x="685" y="65" font-family="'Arial Black','Arial',sans-serif" font-size="26" font-weight="700" text-anchor="start" fill="#111">SEE</text><text x="425.0" y="145" font-family="'Arial Black','Arial',sans-serif" font-size="52" text-anchor="middle" fill="#fff" stroke="#111" stroke-width="4.5" stroke-linejoin="round">Animal Parade</text><text x="425.0" y="185" font-family="'Arial Rounded MT Bold','Nunito','Arial',sans-serif" font-size="24" font-weight="700" text-anchor="middle" fill="#111">Say each animal. Color.</text><line x1="40" y1="608" x2="810" y2="608" fill="none" stroke="#111" stroke-width="2.8" stroke-linejoin="round" stroke-linecap="round"/><line x1="40" y1="948" x2="810" y2="948" fill="none" stroke="#111" stroke-width="2.8" stroke-linejoin="round" stroke-linecap="round"/><path d="M207.5,452.75 Q274.0,438.5 259.75,381.5 Q250.25,348.25 269.25,334.0" fill="none" stroke="#111" stroke-width="25.9" stroke-linecap="round"/><path d="M207.5,452.75 Q274.0,438.5 259.75,381.5 Q250.25,348.25 269.25,334.0" fill="none" stroke="#fff" stroke-width="17.9" stroke-linecap="round"/><ellipse cx="160" cy="405.25" rx="58.9" ry="71.25" fill="#fff" stroke="#111" stroke-width="5.0" stroke-linejoin="round" stroke-linecap="round"/><polygon points="113.07,319.56 118.01,245.45999999999998 150.12,282.51" fill="#fff" stroke="#111" stroke-width="5.0" stroke-linejoin="round" stroke-linecap="round"/><polygon points="121.46799999999999,297.33 122.95,262.75 139.252,282.51" fill="none" stroke="#111" stroke-width="2.8" stroke-linejoin="round" stroke-linecap="round"/><polygon points="206.93,319.56 201.99,245.45999999999998 169.88,282.51" fill="#fff" stroke="#111" stroke-width="5.0" stroke-linejoin="round" stroke-linecap="round"/><polygon points="198.532,297.33 197.05,262.75 180.748,282.51" fill="none" stroke="#111" stroke-width="2.8" stroke-linejoin="round" stroke-linecap="round"/><circle cx="160" cy="324.5" r="49.4" fill="#fff" stroke="#111" stroke-width="5.0" stroke-linejoin="round" stroke-linecap="round"/><circle cx="141.2" cy="318.6" r="5.4" fill="#111"/><line x1="142.71" y1="333.392" x2="98.25" y2="321.536" fill="none" stroke="#111" stroke-width="2.5" stroke-linejoin="round" stroke-linecap="round"/><line x1="142.71" y1="339.32" x2="98.25" y2="335.368" fill="none" stroke="#111" stroke-width="2.5" stroke-linejoin="round" stroke-linecap="round"/><line x1="142.71" y1="345.248" x2="98.25" y2="349.2" fill="none" stroke="#111" stroke-width="2.5" stroke-linejoin="round" stroke-linecap="round"/><ellipse cx="133.4" cy="471.75" rx="20.9" ry="12.35" fill="#fff" stroke="#111" stroke-width="3.8" stroke-linejoin="round" stroke-linecap="round"/><circle cx="178.8" cy="318.6" r="5.4" fill="#111"/><line x1="177.29" y1="333.392" x2="221.75" y2="321.536" fill="none" stroke="#111" stroke-width="2.5" stroke-linejoin="round" stroke-linecap="round"/><line x1="177.29" y1="339.32" x2="221.75" y2="335.368" fill="none" stroke="#111" stroke-width="2.5" stroke-linejoin="round" stroke-linecap="round"/><line x1="177.29" y1="345.248" x2="221.75" y2="349.2" fill="none" stroke="#111" stroke-width="2.5" stroke-linejoin="round" stroke-linecap="round"/><ellipse cx="186.6" cy="471.75" rx="20.9" ry="12.35" fill="#fff" stroke="#111" stroke-width="3.8" stroke-linejoin="round" stroke-linecap="round"/><polygon points="154.072,331.416 165.928,331.416 160,339.32" fill="#111" stroke="#111" stroke-width="3" stroke-linejoin="round"/><path d="M146.168,345.248 Q153.084,353.152 160,340.308 Q166.916,353.152 173.832,345.248" fill="none" stroke="#111" stroke-width="2.8" stroke-linejoin="round" stroke-linecap="round"/><rect x="50.0" y="490" width="220" height="62" rx="12" fill="#fff" stroke="#111" stroke-width="5.0" stroke-linejoin="round" stroke-linecap="round"/><path d="M60.0,552 q25.0,24 50.0,0 t50.0,0 t50.0,0 t50.0,0" fill="#fff" stroke="#111" stroke-width="2.8" stroke-linejoin="round" stroke-linecap="round"/><text x="160" y="535" font-family="'Arial Black','Arial',sans-serif" font-size="38" font-weight="700" text-anchor="middle" fill="#111">cat</text><circle cx="94.0" cy="582" r="24" fill="#fff" stroke="#111" stroke-width="5.0" stroke-linejoin="round" stroke-linecap="round"/><circle cx="94.0" cy="582" r="7" fill="#111"/><circle cx="226.0" cy="582" r="24" fill="#fff" stroke="#111" stroke-width="5.0" stroke-linejoin="round" stroke-linecap="round"/><circle cx="226.0" cy="582" r="7" fill="#111"/><path d="M350.0,352.0 Q320.0,332.0 312.0,292.0" fill="none" stroke="#111" stroke-width="21.0" stroke-linecap="round"/><path d="M350.0,352.0 Q320.0,332.0 312.0,292.0" fill="none" stroke="#fff" stroke-width="13.0" stroke-linecap="round"/><line x1="393.0" y1="392.0" x2="393.0" y2="467.0" stroke="#111" stroke-width="33.0" stroke-linecap="round"/><line x1="393.0" y1="392.0" x2="393.0" y2="467.0" stroke="#fff" stroke-width="25.0" stroke-linecap="round"/><line x1="485.0" y1="392.0" x2="487.0" y2="467.0" stroke="#111" stroke-width="33.0" stroke-linecap="round"/><line x1="485.0" y1="392.0" x2="487.0" y2="467.0" stroke="#fff" stroke-width="25.0" stroke-linecap="round"/><line x1="367.0" y1="392.0" x2="363.0" y2="467.0" stroke="#111" stroke-width="33.0" stroke-linecap="round"/><line x1="367.0" y1="392.0" x2="363.0" y2="467.0" stroke="#fff" stroke-width="25.0" stroke-linecap="round"/><line x1="460.0" y1="392.0" x2="460.0" y2="467.0" stroke="#111" stroke-width="33.0" stroke-linecap="round"/><line x1="460.0" y1="392.0" x2="460.0" y2="467.0" stroke="#fff" stroke-width="25.0" stroke-linecap="round"/><ellipse cx="371.0" cy="477.0" rx="19.0" ry="10.0" fill="#fff" stroke="#111" stroke-width="3.8" stroke-linejoin="round" stroke-linecap="round"/><ellipse cx="401.0" cy="477.0" rx="19.0" ry="10.0" fill="#fff" stroke="#111" stroke-width="3.8" stroke-linejoin="round" stroke-linecap="round"/><ellipse cx="468.0" cy="477.0" rx="19.0" ry="10.0" fill="#fff" stroke="#111" stroke-width="3.8" stroke-linejoin="round" stroke-linecap="round"/><ellipse cx="495.0" cy="477.0" rx="19.0" ry="10.0" fill="#fff" stroke="#111" stroke-width="3.8" stroke-linejoin="round" stroke-linecap="round"/><ellipse cx="425" cy="372" rx="85.0" ry="45.0" fill="#fff" stroke="#111" stroke-width="5.0" stroke-linejoin="round" stroke-linecap="round"/><circle cx="503.0" cy="320.0" r="42.0" fill="#fff" stroke="#111" stroke-width="5.0" stroke-linejoin="round" stroke-linecap="round"/><ellipse cx="541.0" cy="334.0" rx="30.0" ry="20.0" fill="#fff" stroke="#111" stroke-width="5.0" stroke-linejoin="round" stroke-linecap="round"/><ellipse cx="567.0" cy="326.0" rx="9.0" ry="8.0" fill="#111"/><path d="M533.0,346.0 Q547.0,356.0 561.0,344.0" fill="none" stroke="#111" stroke-width="2.8" stroke-linejoin="round" stroke-linecap="round"/><circle cx="515.0" cy="310.0" r="5.5" fill="#111"/><ellipse cx="481.0" cy="330.0" rx="15.0" ry="32.0" transform="rotate(20 481.0 330.0)" fill="#fff" stroke="#111" stroke-width="5.0" stroke-linejoin="round" stroke-linecap="round"/><path d="M475.0,356.0 Q503.0,370.0 519.0,358.0" fill="none" stroke="#111" stroke-width="2.8" stroke-linejoin="round" stroke-linecap="round"/><rect x="315.0" y="490" width="220" height="62" rx="12" fill="#fff" stroke="#111" stroke-width="5.0" stroke-linejoin="round" stroke-linecap="round"/><path d="M325.0,552 q25.0,24 50.0,0 t50.0,0 t50.0,0 t50.0,0" fill="#fff" stroke="#111" stroke-width="2.8" stroke-linejoin="round" stroke-linecap="round"/><text x="425" y="535" font-family="'Arial Black','Arial',sans-serif" font-size="38" font-weight="700" text-anchor="middle" fill="#111">dog</text><circle cx="359.0" cy="582" r="24" fill="#fff" stroke="#111" stroke-width="5.0" stroke-linejoin="round" stroke-linecap="round"/><circle cx="359.0" cy="582" r="7" fill="#111"/><circle cx="491.0" cy="582" r="24" fill="#fff" stroke="#111" stroke-width="5.0" stroke-linejoin="round" stroke-linecap="round"/><circle cx="491.0" cy="582" r="7" fill="#111"/><path d="M640,490 v-60 M740,490 v-60" fill="none" stroke="#111" stroke-width="5.0" stroke-linejoin="round" stroke-linecap="round"/><line x1="620" y1="430" x2="760" y2="430" fill="none" stroke="#111" stroke-width="5.0" stroke-linejoin="round" stroke-linecap="round"/><polygon points="732.0,358.75 789.75,337.75 784.5,385.0" fill="#fff" stroke="#111" stroke-width="5.0" stroke-linejoin="round" stroke-linecap="round"/><path d="M677.4,403.9 l0,25.200000000000003 m-10.5,0 l21.0,0" fill="none" stroke="#111" stroke-width="3.3" stroke-linejoin="round" stroke-linecap="round"/><path d="M702.6,403.9 l0,25.200000000000003 m-10.5,0 l21.0,0" fill="none" stroke="#111" stroke-width="3.3" stroke-linejoin="round" stroke-linecap="round"/><ellipse cx="690" cy="364" rx="60.900000000000006" ry="46.2" fill="#fff" stroke="#111" stroke-width="5.0" stroke-linejoin="round" stroke-linecap="round"/><polygon points="615.45,316.75 581.85,328.3 615.45,339.84999999999997" fill="#fff" stroke="#111" stroke-width="3.8" stroke-linejoin="round" stroke-linecap="round"/><circle cx="642.75" cy="326.2" r="33.6" fill="#fff" stroke="#111" stroke-width="5.0" stroke-linejoin="round" stroke-linecap="round"/><circle cx="632.2" cy="319.9" r="5.8" fill="#111"/><path d="M726.75,358.75 Q690,337.75 666.9,369.25 Q695.25,395.5 726.75,358.75 Z" fill="#fff" stroke="#111" stroke-width="3.8" stroke-linejoin="round" stroke-linecap="round"/><rect x="580.0" y="490" width="220" height="62" rx="12" fill="#fff" stroke="#111" stroke-width="5.0" stroke-linejoin="round" stroke-linecap="round"/><path d="M590.0,552 q25.0,24 50.0,0 t50.0,0 t50.0,0 t50.0,0" fill="#fff" stroke="#111" stroke-width="2.8" stroke-linejoin="round" stroke-linecap="round"/><text x="690" y="535" font-family="'Arial Black','Arial',sans-serif" font-size="38" font-weight="700" text-anchor="middle" fill="#111">bird</text><circle cx="624.0" cy="582" r="24" fill="#fff" stroke="#111" stroke-width="5.0" stroke-linejoin="round" stroke-linecap="round"/><circle cx="624.0" cy="582" r="7" fill="#111"/><circle cx="756.0" cy="582" r="24" fill="#fff" stroke="#111" stroke-width="5.0" stroke-linejoin="round" stroke-linecap="round"/><circle cx="756.0" cy="582" r="7" fill="#111"/><path d="M95,830 Q55,750 90,680 L230,680 Q265,750 225,830 Z" fill="#fff" stroke="#111" stroke-width="5.0" stroke-linejoin="round" stroke-linecap="round"/><path d="M78,720 q20,-12 40,0 t40,0 t40,0 t40,0" fill="none" stroke="#111" stroke-width="2.8" stroke-linejoin="round" stroke-linecap="round"/><polygon points="136.4,770 105.19999999999999,746.6 110.4,770 105.19999999999999,793.4" fill="#fff" stroke="#111" stroke-width="5.0" stroke-linejoin="round" stroke-linecap="round"/><path d="M152.0,750.24 Q162.4,729.44 185.8,750.24" fill="#fff" stroke="#111" stroke-width="5.0" stroke-linejoin="round" stroke-linecap="round"/><ellipse cx="165" cy="770" rx="39.0" ry="23.400000000000002" fill="#fff" stroke="#111" stroke-width="5.0" stroke-linejoin="round" stroke-linecap="round"/><path d="M179.56,754.4 Q171.24,770 179.56,785.6" fill="none" stroke="#111" stroke-width="2.8" stroke-linejoin="round" stroke-linecap="round"/><circle cx="189.96" cy="763.76" r="5.720000000000001" fill="#fff" stroke="#111" stroke-width="2.8" stroke-linejoin="round" stroke-linecap="round"/><circle cx="191.0" cy="763.8" r="2.6" fill="#111"/><path d="M192.04,777.28 Q197.24,780.4 201.4,775.2" fill="none" stroke="#111" stroke-width="2.8" stroke-linejoin="round" stroke-linecap="round"/><path d="M162.4,774.16 Q152.0,785.6 167.6,785.6 Z" fill="#fff" stroke="#111" stroke-width="2.8" stroke-linejoin="round" stroke-linecap="round"/><rect x="50.0" y="830" width="220" height="62" rx="12" fill="#fff" stroke="#111" stroke-width="5.0" stroke-linejoin="round" stroke-linecap="round"/><path d="M60.0,892 q25.0,24 50.0,0 t50.0,0 t50.0,0 t50.0,0" fill="#fff" stroke="#111" stroke-width="2.8" stroke-linejoin="round" stroke-linecap="round"/><text x="160" y="875" font-family="'Arial Black','Arial',sans-serif" font-size="38" font-weight="700" text-anchor="middle" fill="#111">fish</text><circle cx="94.0" cy="922" r="24" fill="#fff" stroke="#111" stroke-width="5.0" stroke-linejoin="round" stroke-linecap="round"/><circle cx="94.0" cy="922" r="7" fill="#111"/><circle cx="226.0" cy="922" r="24" fill="#fff" stroke="#111" stroke-width="5.0" stroke-linejoin="round" stroke-linecap="round"/><circle cx="226.0" cy="922" r="7" fill="#111"/><ellipse cx="425" cy="709.616" rx="27.4482" ry="23.868000000000002" fill="#fff" stroke="#111" stroke-width="5.0" stroke-linejoin="round" stroke-linecap="round"/><circle cx="450.0614" cy="709.616" r="6.7392" fill="#fff" stroke="#111" stroke-width="2.8" stroke-linejoin="round" stroke-linecap="round"/><circle cx="444.198146206782" cy="723.4238492011984" r="6.7392" fill="#fff" stroke="#111" stroke-width="2.8" stroke-linejoin="round" stroke-linecap="round"/><circle cx="429.351866439782" cy="730.7708523040059" r="6.7392" fill="#fff" stroke="#111" stroke-width="2.8" stroke-linejoin="round" stroke-linecap="round"/><circle cx="412.4693" cy="728.2192649037743" r="6.7392" fill="#fff" stroke="#111" stroke-width="2.8" stroke-linejoin="round" stroke-linecap="round"/><circle cx="401.44998735343603" cy="716.9630031028073" r="6.7392" fill="#fff" stroke="#111" stroke-width="2.8" stroke-linejoin="round" stroke-linecap="round"/><circle cx="401.44998735343603" cy="702.2689968971927" r="6.7392" fill="#fff" stroke="#111" stroke-width="2.8" stroke-linejoin="round" stroke-linecap="round"/><circle cx="412.4693" cy="691.0127350962257" r="6.7392" fill="#fff" stroke="#111" stroke-width="2.8" stroke-linejoin="round" stroke-linecap="round"/><circle cx="429.351866439782" cy="688.4611476959941" r="6.7392" fill="#fff" stroke="#111" stroke-width="2.8" stroke-linejoin="round" stroke-linecap="round"/><circle cx="444.1981462067819" cy="695.8081507988015" r="6.7392" fill="#fff" stroke="#111" stroke-width="2.8" stroke-linejoin="round" stroke-linecap="round"/><circle cx="415.172" cy="704.0" r="6.177600000000001" fill="#fff" stroke="#111" stroke-width="2.8" stroke-linejoin="round" stroke-linecap="round"/><circle cx="434.828" cy="704.0" r="6.177600000000001" fill="#fff" stroke="#111" stroke-width="2.8" stroke-linejoin="round" stroke-linecap="round"/><circle cx="425.0" cy="716.636" r="6.177600000000001" fill="#fff" stroke="#111" stroke-width="2.8" stroke-linejoin="round" stroke-linecap="round"/><circle cx="413.768" cy="718.04" r="6.177600000000001" fill="#fff" stroke="#111" stroke-width="2.8" stroke-linejoin="round" stroke-linecap="round"/><circle cx="436.232" cy="718.04" r="6.177600000000001" fill="#fff" stroke="#111" stroke-width="2.8" stroke-linejoin="round" stroke-linecap="round"/><ellipse cx="425" cy="720.848" rx="18.252000000000002" ry="5.0544" fill="#fff" stroke="#111" stroke-width="3.3" stroke-linejoin="round" stroke-linecap="round"/><path d="M420.84,867.3840000000001 L423.5856,960.9840000000002 L389.64,960.9840000000002 L391.408,836.1840000000001 Z" fill="#fff" stroke="#111" stroke-width="5.0" stroke-linejoin="round" stroke-linecap="round"/><line x1="423.5856" y1="960.9840000000002" x2="389.64" y2="960.9840000000002" fill="none" stroke="#111" stroke-width="2.8" stroke-linejoin="round" stroke-linecap="round"/><path d="M392.0528,960.9840000000002 L423.2528,960.9840000000002 Q427.4128,971.3840000000001 422.2128,979.7040000000002 L392.0528,979.7040000000002 Q388.9328,970.3440000000002 392.0528,960.9840000000002 Z" fill="#fff" stroke="#111" stroke-width="5.0" stroke-linejoin="round" stroke-linecap="round"/><path d="M413.89279999999997,966.1840000000002 Q423.2528,970.3440000000002 419.0928,979.7040000000002" fill="none" stroke="#111" stroke-width="2.8" stroke-linejoin="round" stroke-linecap="round"/><line x1="389.9728" y1="976.5840000000002" x2="425.3328" y2="976.5840000000002" fill="none" stroke="#111" stroke-width="2.8" stroke-linejoin="round" stroke-linecap="round"/><line x1="401.4128" y1="965.1440000000001" x2="409.7328" y2="969.3040000000002" fill="none" stroke="#111" stroke-width="1.8" stroke-linejoin="round" stroke-linecap="round"/><line x1="401.4128" y1="969.3040000000002" x2="409.7328" y2="965.1440000000001" fill="none" stroke="#111" stroke-width="1.8" stroke-linejoin="round" stroke-linecap="round"/><path d="M429.16,867.3840000000001 L426.4144,960.9840000000002 L460.36,960.9840000000002 L458.592,836.1840000000001 Z" fill="#fff" stroke="#111" stroke-width="5.0" stroke-linejoin="round" stroke-linecap="round"/><line x1="426.4144" y1="960.9840000000002" x2="460.36" y2="960.9840000000002" fill="none" stroke="#111" stroke-width="2.8" stroke-linejoin="round" stroke-linecap="round"/><path d="M428.8272,960.9840000000002 L460.0272,960.9840000000002 Q464.1872,971.3840000000001 458.98720000000003,979.7040000000002 L428.8272,979.7040000000002 Q425.7072,970.3440000000002 428.8272,960.9840000000002 Z" fill="#fff" stroke="#111" stroke-width="5.0" stroke-linejoin="round" stroke-linecap="round"/><path d="M450.6672,966.1840000000002 Q460.0272,970.3440000000002 455.8672,979.7040000000002" fill="none" stroke="#111" stroke-width="2.8" stroke-linejoin="round" stroke-linecap="round"/><line x1="426.7472" y1="976.5840000000002" x2="462.10720000000003" y2="976.5840000000002" fill="none" stroke="#111" stroke-width="2.8" stroke-linejoin="round" stroke-linecap="round"/><line x1="438.1872" y1="965.1440000000001" x2="446.5072" y2="969.3040000000002" fill="none" stroke="#111" stroke-width="1.8" stroke-linejoin="round" stroke-linecap="round"/><line x1="438.1872" y1="969.3040000000002" x2="446.5072" y2="965.1440000000001" fill="none" stroke="#111" stroke-width="1.8" stroke-linejoin="round" stroke-linecap="round"/><rect x="393.176" y="829.9440000000001" width="63.648" height="7.28" rx="2.08" fill="#fff" stroke="#111" stroke-width="2.8" stroke-linejoin="round" stroke-linecap="round"/><rect x="419.8" y="828.9040000000001" width="10.4" height="9.36" rx="1.56" fill="#fff" stroke="#111" stroke-width="3.8" stroke-linejoin="round" stroke-linecap="round"/><path d="M388.6,780.0240000000001 Q388.6,768.5840000000001 403.16,768.5840000000001 L446.84,768.5840000000001 Q461.4,768.5840000000001 461.4,780.0240000000001 L462.856,856.984 L387.144,856.984 Z" fill="#fff" stroke="#111" stroke-width="5.0" stroke-linejoin="round" stroke-linecap="round"/><path d="M411.48,768.5840000000001 L414.184,856.984 L387.144,856.984 L388.6,780.0240000000001 Z" fill="#fff" stroke="#111" stroke-width="2.8" stroke-linejoin="round" stroke-linecap="round"/><path d="M438.52,768.5840000000001 L435.816,856.984 L462.856,856.984 L461.4,780.0240000000001 Z" fill="#fff" stroke="#111" stroke-width="2.8" stroke-linejoin="round" stroke-linecap="round"/><rect x="391.512" y="830.984" width="18.72" height="22.880000000000003" rx="3.12" fill="#fff" stroke="#111" stroke-width="2.8" stroke-linejoin="round" stroke-linecap="round"/><rect x="439.76800000000003" y="830.984" width="18.72" height="22.880000000000003" rx="3.12" fill="#fff" stroke="#111" stroke-width="2.8" stroke-linejoin="round" stroke-linecap="round"/><path d="M416.68,769.624 L425,811.224 L433.32,769.624" fill="none" stroke="#111" stroke-width="3.3" stroke-linejoin="round" stroke-linecap="round"/><rect x="422.4" y="811.224" width="5.2" height="4.16" rx="1.04" fill="#fff" stroke="#111" stroke-width="2.8" stroke-linejoin="round" stroke-linecap="round"/><rect x="415.64" y="815.384" width="18.72" height="24.96" rx="2.6" fill="#fff" stroke="#111" stroke-width="5.0" stroke-linejoin="round" stroke-linecap="round"/><circle cx="425" cy="818.504" r="1.56" fill="#111"/><text x="425" y="829.9440000000001" font-family="'Arial Black','Arial',sans-serif" font-size="11" font-weight="700" text-anchor="middle" fill="#111">B</text><text x="425" y="836.1840000000001" font-family="'Arial Rounded MT Bold','Nunito','Arial',sans-serif" font-size="6" font-weight="700" text-anchor="middle" fill="#111">♡</text><path d="M457.032,782.104 Q470.13599999999997,771.7040000000001 477.832,740.504" stroke="#111" stroke-width="21.64" stroke-linecap="round" fill="none"/><path d="M457.032,782.104 Q470.13599999999997,771.7040000000001 477.832,740.504" stroke="#fff" stroke-width="13.64" stroke-linecap="round" fill="none"/><circle cx="477.832" cy="740.504" r="8.32" fill="#fff" stroke="#111" stroke-width="2.8" stroke-linejoin="round" stroke-linecap="round"/><line x1="477.832" y1="740.504" x2="470.478509745186" y2="731.740451570719" stroke="#111" stroke-width="3.64" stroke-linecap="round"/><line x1="477.832" y1="740.504" x2="470.478509745186" y2="731.740451570719" stroke="#fff" stroke-width="0.6400000000000001" stroke-linecap="round"/><line x1="477.832" y1="740.504" x2="474.87111012402715" y2="729.4538085472531" stroke="#111" stroke-width="3.64" stroke-linecap="round"/><line x1="477.832" y1="740.504" x2="474.87111012402715" y2="729.4538085472531" stroke="#fff" stroke-width="0.6400000000000001" stroke-linecap="round"/><line x1="477.832" y1="740.504" x2="479.8185351525097" y2="729.2377993055403" stroke="#111" stroke-width="3.64" stroke-linecap="round"/><line x1="477.832" y1="740.504" x2="479.8185351525097" y2="729.2377993055403" stroke="#fff" stroke-width="0.6400000000000001" stroke-linecap="round"/><line x1="477.832" y1="740.504" x2="484.393714431856" y2="731.132900613334" stroke="#111" stroke-width="3.64" stroke-linecap="round"/><line x1="477.832" y1="740.504" x2="484.393714431856" y2="731.132900613334" stroke="#fff" stroke-width="0.6400000000000001" stroke-linecap="round"/><line x1="477.832" y1="740.504" x2="487.739330619294" y2="734.784" stroke="#111" stroke-width="3.64" stroke-linecap="round"/><line x1="477.832" y1="740.504" x2="487.739330619294" y2="734.784" stroke="#fff" stroke-width="0.6400000000000001" stroke-linecap="round"/><path d="M392.968,782.104 Q382.776,808.104 392.968,841.904" stroke="#111" stroke-width="21.64" stroke-linecap="round" fill="none"/><path d="M392.968,782.104 Q382.776,808.104 392.968,841.904" stroke="#fff" stroke-width="13.64" stroke-linecap="round" fill="none"/><g transform="rotate(-8 387.76800000000003 821.104)"><rect x="369.048" y="821.104" width="37.44" height="50.96" rx="3.12" fill="#fff" stroke="#111" stroke-width="5.0" stroke-linejoin="round" stroke-linecap="round"/><rect x="373.208" y="825.264" width="29.119999999999997" height="42.64" rx="2.08" fill="none" stroke="#111" stroke-width="2.8" stroke-linejoin="round" stroke-linecap="round"/><text x="387.76800000000003" y="836.7040000000001" font-family="'Arial Black','Arial',sans-serif" font-size="7" font-weight="700" text-anchor="middle" fill="#111">Kind</text><text x="387.76800000000003" y="845.024" font-family="'Arial Black','Arial',sans-serif" font-size="6" font-weight="700" text-anchor="middle" fill="#111">English</text><text x="387.76800000000003" y="853.344" font-family="'Arial Black','Arial',sans-serif" font-size="5" font-weight="700" text-anchor="middle" fill="#111">Brighter</text><text x="387.76800000000003" y="860.624" font-family="'Arial Rounded MT Bold','Nunito','Arial',sans-serif" font-size="5" font-weight="700" text-anchor="middle" fill="#111">Futures ♡</text></g><ellipse cx="392.968" cy="847.104" rx="7.28" ry="6.24" fill="#fff" stroke="#111" stroke-width="3.8" stroke-linejoin="round" stroke-linecap="round"/><rect x="417.2" y="762.9680000000001" width="15.600000000000001" height="10.6704" fill="#fff" stroke="#111" stroke-width="2.8" stroke-linejoin="round" stroke-linecap="round"/><circle cx="425" cy="741.908" r="28.080000000000002" fill="#fff" stroke="#111" stroke-width="5.0" stroke-linejoin="round" stroke-linecap="round"/><circle cx="395.7968" cy="751.736" r="6.177600000000001" fill="#fff" stroke="#111" stroke-width="3.8" stroke-linejoin="round" stroke-linecap="round"/><circle cx="395.7968" cy="751.736" r="3.9312000000000005" fill="#fff" stroke="#111" stroke-width="2.8"/><circle cx="454.2032" cy="751.736" r="6.177600000000001" fill="#fff" stroke="#111" stroke-width="3.8" stroke-linejoin="round" stroke-linecap="round"/><circle cx="454.2032" cy="751.736" r="3.9312000000000005" fill="#fff" stroke="#111" stroke-width="2.8"/><path d="M420.5072,732.3608 Q414.3296,728.4296 408.15200000000004,733.2032" fill="none" stroke="#111" stroke-width="3.8" stroke-linejoin="round" stroke-linecap="round"/><ellipse cx="414.3296" cy="740.2232" rx="6.177600000000001" ry="4.492800000000001" fill="#fff" stroke="#111" stroke-width="3.8" stroke-linejoin="round" stroke-linecap="round"/><circle cx="413.2896" cy="740.2232" r="3.0888000000000004" fill="#111"/><circle cx="412.2496" cy="739.1832" r="1.1232000000000002" fill="#fff"/><line x1="409.27520000000004" y1="736.8536" x2="406.46720000000005" y2="734.0456" fill="none" stroke="#111" stroke-width="2.8" stroke-linejoin="round" stroke-linecap="round"/><path d="M429.4928,732.3608 Q435.6704,728.4296 441.84799999999996,733.2032" fill="none" stroke="#111" stroke-width="3.8" stroke-linejoin="round" stroke-linecap="round"/><ellipse cx="435.6704" cy="740.2232" rx="6.177600000000001" ry="4.492800000000001" fill="#fff" stroke="#111" stroke-width="3.8" stroke-linejoin="round" stroke-linecap="round"/><circle cx="436.7104" cy="740.2232" r="3.0888000000000004" fill="#111"/><circle cx="435.6704" cy="739.1832" r="1.1232000000000002" fill="#fff"/><line x1="440.72479999999996" y1="736.8536" x2="443.53279999999995" y2="734.0456" fill="none" stroke="#111" stroke-width="2.8" stroke-linejoin="round" stroke-linecap="round"/><path d="M422.4,746.9624 Q425,748.6472 427.6,746.9624" fill="none" stroke="#111" stroke-width="2.8" stroke-linejoin="round" stroke-linecap="round"/><path d="M413.2064,752.5784 Q425,764.9336000000001 436.7936,752.5784 Z" fill="#fff" stroke="#111" stroke-width="3.8" stroke-linejoin="round" stroke-linecap="round"/><line x1="415.4528" y1="754.2632" x2="434.5472" y2="754.2632" fill="none" stroke="#111" stroke-width="2.8" stroke-linejoin="round" stroke-linecap="round"/><ellipse cx="631.1" cy="786.1" rx="38.0" ry="28.5" fill="#fff" stroke="#111" stroke-width="5.0" stroke-linejoin="round" stroke-linecap="round"/><ellipse cx="602.6" cy="814.6" rx="30.4" ry="11.399999999999999" fill="#fff" stroke="#111" stroke-width="5.0" stroke-linejoin="round" stroke-linecap="round"/><ellipse cx="748.9" cy="786.1" rx="38.0" ry="28.5" fill="#fff" stroke="#111" stroke-width="5.0" stroke-linejoin="round" stroke-linecap="round"/><ellipse cx="777.4" cy="814.6" rx="30.4" ry="11.399999999999999" fill="#fff" stroke="#111" stroke-width="5.0" stroke-linejoin="round" stroke-linecap="round"/><ellipse cx="690" cy="759.5" rx="76.0" ry="55.099999999999994" fill="#fff" stroke="#111" stroke-width="5.0" stroke-linejoin="round" stroke-linecap="round"/><ellipse cx="663.4" cy="812.7" rx="17.099999999999998" ry="9.5" fill="#fff" stroke="#111" stroke-width="3.8" stroke-linejoin="round" stroke-linecap="round"/><ellipse cx="716.6" cy="812.7" rx="17.099999999999998" ry="9.5" fill="#fff" stroke="#111" stroke-width="3.8" stroke-linejoin="round" stroke-linecap="round"/><circle cx="655.8" cy="700.6" r="22.799999999999997" fill="#fff" stroke="#111" stroke-width="5.0" stroke-linejoin="round" stroke-linecap="round"/><circle cx="655.8" cy="700.6" r="7.6" fill="#111"/><circle cx="724.2" cy="700.6" r="22.799999999999997" fill="#fff" stroke="#111" stroke-width="5.0" stroke-linejoin="round" stroke-linecap="round"/><circle cx="724.2" cy="700.6" r="7.6" fill="#111"/><path d="M647.25,745.25 Q690,783.25 732.75,745.25" fill="none" stroke="#111" stroke-width="3.3" stroke-linejoin="round" stroke-linecap="round"/><path d="M633.0,716.75 Q690,694.9 747.0,716.75" fill="#fff" stroke="none"/><rect x="580.0" y="830" width="220" height="62" rx="12" fill="#fff" stroke="#111" stroke-width="5.0" stroke-linejoin="round" stroke-linecap="round"/><path d="M590.0,892 q25.0,24 50.0,0 t50.0,0 t50.0,0 t50.0,0" fill="#fff" stroke="#111" stroke-width="2.8" stroke-linejoin="round" stroke-linecap="round"/><text x="690" y="875" font-family="'Arial Black','Arial',sans-serif" font-size="38" font-weight="700" text-anchor="middle" fill="#111">frog</text><circle cx="624.0" cy="922" r="24" fill="#fff" stroke="#111" stroke-width="5.0" stroke-linejoin="round" stroke-linecap="round"/><circle cx="624.0" cy="922" r="7" fill="#111"/><circle cx="756.0" cy="922" r="24" fill="#fff" stroke="#111" stroke-width="5.0" stroke-linejoin="round" stroke-linecap="round"/><circle cx="756.0" cy="922" r="7" fill="#111"/><rect x="40" y="980" width="770" height="88" rx="18" fill="#fff" stroke="#111" stroke-width="2.8" stroke-linejoin="round" stroke-linecap="round"/><text x="62" y="1012" font-family="'Arial Rounded MT Bold','Nunito','Arial',sans-serif" font-size="17" font-weight="700" text-anchor="start" fill="#111">Words: cat · dog · fish · bird · frog</text><text x="62" y="1042" font-family="'Arial Rounded MT Bold','Nunito','Arial',sans-serif" font-size="15" font-weight="400" text-anchor="start" fill="#111">Mrs. B tip: Point: 'It is a dog.' Ask: 'What animal do you like?'</text><text x="785" y="1045" font-family="'Arial Black','Arial',sans-serif" font-size="24" font-weight="700" text-anchor="end" fill="#111">26</text></svg>