<svg xmlns="http://www.w3.org/2000/svg" viewBox="0 0 850 1100" width="850" height="1100"><rect width="850" height="1100" fill="#fff"/><rect x="40" y="32" width="320" height="46" rx="23" fill="#fff" stroke="#111" stroke-width="2.8" stroke-linejoin="round" stroke-linecap="round"/><text x="200.0" y="63" font-family="'Arial Rounded MT Bold','Nunito','Arial',sans-serif" font-size="20" font-weight="700" text-anchor="middle" fill="#111">UNIT 7 · MY COMMUNITY</text><rect x="600" y="26" width="210" height="58" rx="29" fill="#fff" stroke="#111" stroke-width="2.8" stroke-linejoin="round" stroke-linecap="round"/><path d="M624.0,41.0 h42.0 a8,8 0 0 1 8,8 v18.2 a8,8 0 0 1 -8,8 h-26.599999999999998 l-9.799999999999999,9.799999999999999 v-9.799999999999999 h-5.6 a8,8 0 0 1 -8,-8 v-18.2 a8,8 0 0 1 8,-8 Z" fill="#fff" stroke="#111" stroke-width="3.8" stroke-linejoin="round" stroke-linecap="round"/><text x="685" y="65" font-family="'Arial Black','Arial',sans-serif" font-size="26" font-weight="700" text-anchor="start" fill="#111">SAY</text><text x="425.0" y="145" font-family="'Arial Black','Arial',sans-serif" font-size="52" text-anchor="middle" fill="#fff" stroke="#111" stroke-width="4.5" stroke-linejoin="round">Helpers and Tools</text><text x="425.0" y="185" font-family="'Arial Rounded MT Bold','Nunito','Arial',sans-serif" font-size="24" font-weight="700" text-anchor="middle" fill="#111">Match. Say: A ___ helps us.</text><clipPath id="u7pp0"><rect x="60" y="256" width="116" height="112" rx="14"/></clipPath><g clip-path="url(#u7pp0)"><rect x="89.776" y="432.16" width="21.599999999999998" height="75.6" rx="5.76" fill="#fff" stroke="#111" stroke-width="5.0" stroke-linejoin="round" stroke-linecap="round"/><ellipse cx="94.09599999999999" cy="511.36" rx="19.439999999999998" ry="9.36" fill="#fff" stroke="#111" stroke-width="5.0" stroke-linejoin="round" stroke-linecap="round"/><rect x="124.62400000000001" y="432.16" width="21.599999999999998" height="75.6" rx="5.76" fill="#fff" stroke="#111" stroke-width="5.0" stroke-linejoin="round" stroke-linecap="round"/><ellipse cx="141.904" cy="511.36" rx="19.439999999999998" ry="9.36" fill="#fff" stroke="#111" stroke-width="5.0" stroke-linejoin="round" stroke-linecap="round"/><line x1="83.152" y1="348.64" x2="71.632" y2="420.64" stroke="#111" stroke-width="26.599999999999998" stroke-linecap="round"/><line x1="83.152" y1="348.64" x2="71.632" y2="420.64" stroke="#fff" stroke-width="18.599999999999998" stroke-linecap="round"/><line x1="152.848" y1="348.64" x2="164.36800000000002" y2="420.64" stroke="#111" stroke-width="26.599999999999998" stroke-linecap="round"/><line x1="152.848" y1="348.64" x2="164.36800000000002" y2="420.64" stroke="#fff" stroke-width="18.599999999999998" stroke-linecap="round"/><circle cx="71.632" cy="420.64" r="10.08" fill="#fff" stroke="#111" stroke-width="5.0" stroke-linejoin="round" stroke-linecap="round"/><circle cx="164.36800000000002" cy="420.64" r="10.08" fill="#fff" stroke="#111" stroke-width="5.0" stroke-linejoin="round" stroke-linecap="round"/><path d="M78.4,345.76 Q78.4,331.36 94.24000000000001,331.36 L141.76,331.36 Q157.6,331.36 157.6,345.76 L163.35999999999999,473.92 L72.64,473.92 Z" fill="#fff" stroke="#111" stroke-width="5.0" stroke-linejoin="round" stroke-linecap="round"/><path d="M100.72,331.36 L118.0,383.2 L135.28,331.36" fill="none" stroke="#111" stroke-width="2.8" stroke-linejoin="round" stroke-linecap="round"/><line x1="118.0" y1="383.2" x2="118.0" y2="473.92" fill="none" stroke="#111" stroke-width="2.8" stroke-linejoin="round" stroke-linecap="round"/><rect x="86.32" y="397.6" width="18.72" height="17.28" fill="#fff" stroke="#111" stroke-width="2.8" stroke-linejoin="round" stroke-linecap="round"/><path d="M103.6,333.52000000000004 Q97.84,371.68 118.0,374.56 Q138.16,371.68 132.4,333.52000000000004" fill="none" stroke="#111" stroke-width="3.3" stroke-linejoin="round" stroke-linecap="round"/><path d="M118.0,374.56 Q122.32,391.84000000000003 135.28,394.72" fill="none" stroke="#111" stroke-width="3.3" stroke-linejoin="round" stroke-linecap="round"/><circle cx="141.04" cy="396.16" r="7.199999999999999" fill="#fff" stroke="#111" stroke-width="2.8" stroke-linejoin="round" stroke-linecap="round"/><rect x="109.36" y="327.04" width="17.28" height="8.639999999999999" fill="#fff" stroke="#111" stroke-width="2.8" stroke-linejoin="round" stroke-linecap="round"/><circle cx="118.0" cy="304.0" r="28.799999999999997" fill="#fff" stroke="#111" stroke-width="5.0" stroke-linejoin="round" stroke-linecap="round"/><circle cx="92.656" cy="278.656" r="13.248" fill="#fff" stroke="#111" stroke-width="5.0" stroke-linejoin="round" stroke-linecap="round"/><circle cx="143.344" cy="278.656" r="13.248" fill="#fff" stroke="#111" stroke-width="5.0" stroke-linejoin="round" stroke-linecap="round"/><circle cx="107.632" cy="301.696" r="3.5999999999999996" fill="#111"/><circle cx="106.132" cy="300.196" r="1.2000000000000002" fill="#fff"/><circle cx="128.368" cy="301.696" r="3.5999999999999996" fill="#111"/><circle cx="126.868" cy="300.196" r="1.2000000000000002" fill="#fff"/><path d="M105.904,310.336 Q118.0,324.736 130.096,310.336 Z" fill="#fff" stroke="#111" stroke-width="3.3" stroke-linejoin="round" stroke-linecap="round"/></g><rect x="60" y="256" width="116" height="112" rx="14" fill="none" stroke="#111" stroke-width="3.8" stroke-linejoin="round" stroke-linecap="round"/><text x="192" y="321" font-family="'Arial Rounded MT Bold','Nunito','Arial',sans-serif" font-size="26" font-weight="700" text-anchor="start" fill="#111">doctor</text><circle cx="432" cy="312" r="9" fill="#111"/><circle cx="572" cy="312" r="9" fill="#111"/><rect x="600" y="256" width="190" height="112" rx="16" fill="#fff" stroke="#111" stroke-width="3.8" stroke-linejoin="round" stroke-linecap="round"/><rect x="646.64" y="273.04" width="96.72" height="45.24" rx="7.800000000000001" fill="#fff" stroke="#111" stroke-width="5.0" stroke-linejoin="round" stroke-linecap="round"/><rect x="654.44" y="280.84" width="17.16" height="14.040000000000001" rx="2.34" fill="#fff" stroke="#111" stroke-width="2.8" stroke-linejoin="round" stroke-linecap="round"/><rect x="676.2800000000001" y="280.84" width="17.16" height="14.040000000000001" rx="2.34" fill="#fff" stroke="#111" stroke-width="2.8" stroke-linejoin="round" stroke-linecap="round"/><rect x="698.12" y="280.84" width="17.16" height="14.040000000000001" rx="2.34" fill="#fff" stroke="#111" stroke-width="2.8" stroke-linejoin="round" stroke-linecap="round"/><rect x="719.96" y="280.84" width="17.16" height="31.200000000000003" rx="2.34" fill="#fff" stroke="#111" stroke-width="2.8" stroke-linejoin="round" stroke-linecap="round"/><circle cx="668.48" cy="318.28" r="10.14" fill="#fff" stroke="#111" stroke-width="5.0" stroke-linejoin="round" stroke-linecap="round"/><circle cx="668.48" cy="318.28" r="3.12" fill="#111"/><circle cx="705.92" cy="318.28" r="10.14" fill="#fff" stroke="#111" stroke-width="5.0" stroke-linejoin="round" stroke-linecap="round"/><circle cx="705.92" cy="318.28" r="3.12" fill="#111"/><text x="695" y="358" font-family="'Arial Rounded MT Bold','Nunito','Arial',sans-serif" font-size="20" font-weight="700" text-anchor="middle" fill="#111">bus</text><clipPath id="u7pp1"><rect x="60" y="384" width="116" height="112" rx="14"/></clipPath><g clip-path="url(#u7pp1)"><rect x="89.776" y="560.16" width="21.599999999999998" height="75.6" rx="5.76" fill="#fff" stroke="#111" stroke-width="5.0" stroke-linejoin="round" stroke-linecap="round"/><ellipse cx="94.09599999999999" cy="639.36" rx="19.439999999999998" ry="9.36" fill="#fff" stroke="#111" stroke-width="5.0" stroke-linejoin="round" stroke-linecap="round"/><rect x="124.62400000000001" y="560.16" width="21.599999999999998" height="75.6" rx="5.76" fill="#fff" stroke="#111" stroke-width="5.0" stroke-linejoin="round" stroke-linecap="round"/><ellipse cx="141.904" cy="639.36" rx="19.439999999999998" ry="9.36" fill="#fff" stroke="#111" stroke-width="5.0" stroke-linejoin="round" stroke-linecap="round"/><line x1="83.152" y1="476.64" x2="71.632" y2="548.64" stroke="#111" stroke-width="26.599999999999998" stroke-linecap="round"/><line x1="83.152" y1="476.64" x2="71.632" y2="548.64" stroke="#fff" stroke-width="18.599999999999998" stroke-linecap="round"/><line x1="152.848" y1="476.64" x2="164.36800000000002" y2="548.64" stroke="#111" stroke-width="26.599999999999998" stroke-linecap="round"/><line x1="152.848" y1="476.64" x2="164.36800000000002" y2="548.64" stroke="#fff" stroke-width="18.599999999999998" stroke-linecap="round"/><circle cx="71.632" cy="548.64" r="10.08" fill="#fff" stroke="#111" stroke-width="5.0" stroke-linejoin="round" stroke-linecap="round"/><circle cx="164.36800000000002" cy="548.64" r="10.08" fill="#fff" stroke="#111" stroke-width="5.0" stroke-linejoin="round" stroke-linecap="round"/><path d="M78.4,473.76 Q78.4,459.36 94.24000000000001,459.36 L141.76,459.36 Q157.6,459.36 157.6,473.76 L157.6,567.36 L78.4,567.36 Z" fill="#fff" stroke="#111" stroke-width="5.0" stroke-linejoin="round" stroke-linecap="round"/><line x1="118.0" y1="463.68" x2="118.0" y2="567.36" fill="none" stroke="#111" stroke-width="2.8" stroke-linejoin="round" stroke-linecap="round"/><rect x="78.4" y="515.52" width="79.2" height="9.36" fill="#fff" stroke="#111" stroke-width="2.8" stroke-linejoin="round" stroke-linecap="round"/><rect x="78.4" y="539.28" width="79.2" height="9.36" fill="#fff" stroke="#111" stroke-width="2.8" stroke-linejoin="round" stroke-linecap="round"/><rect x="109.36" y="455.04" width="17.28" height="8.639999999999999" fill="#fff" stroke="#111" stroke-width="2.8" stroke-linejoin="round" stroke-linecap="round"/><path d="M84.88,449.28 Q82.0,394.56 118.0,397.44 Q154.0,394.56 151.12,449.28 Z" fill="#fff" stroke="#111" stroke-width="5.0" stroke-linejoin="round" stroke-linecap="round"/><circle cx="118.0" cy="432.0" r="28.799999999999997" fill="#fff" stroke="#111" stroke-width="5.0" stroke-linejoin="round" stroke-linecap="round"/><circle cx="107.632" cy="429.696" r="3.5999999999999996" fill="#111"/><circle cx="106.132" cy="428.196" r="1.2000000000000002" fill="#fff"/><circle cx="128.368" cy="429.696" r="3.5999999999999996" fill="#111"/><circle cx="126.868" cy="428.196" r="1.2000000000000002" fill="#fff"/><path d="M105.904,438.336 Q118.0,452.736 130.096,438.336 Z" fill="#fff" stroke="#111" stroke-width="3.3" stroke-linejoin="round" stroke-linecap="round"/><path d="M77.68,419.904 Q79.12,428.544 92.08,426.24 L143.92,426.24 Q156.88,428.544 158.32,419.904 Z" fill="#fff" stroke="#111" stroke-width="3.8" stroke-linejoin="round" stroke-linecap="round"/><path d="M89.2,421.344 Q87.76,388.8 118.0,388.8 Q148.24,388.8 146.8,421.344 Z" fill="#fff" stroke="#111" stroke-width="5.0" stroke-linejoin="round" stroke-linecap="round"/><path d="M111.088,400.32 h13.823999999999998 v12.095999999999998 q0,4.608 -6.911999999999999,6.911999999999999 q-6.911999999999999,-2.304 -6.911999999999999,-6.911999999999999 Z" fill="#fff" stroke="#111" stroke-width="2.8" stroke-linejoin="round" stroke-linecap="round"/></g><rect x="60" y="384" width="116" height="112" rx="14" fill="none" stroke="#111" stroke-width="3.8" stroke-linejoin="round" stroke-linecap="round"/><text x="192" y="449" font-family="'Arial Rounded MT Bold','Nunito','Arial',sans-serif" font-size="26" font-weight="700" text-anchor="start" fill="#111">firefighter</text><circle cx="432" cy="440" r="9" fill="#111"/><circle cx="572" cy="440" r="9" fill="#111"/><rect x="600" y="384" width="190" height="112" rx="16" fill="#fff" stroke="#111" stroke-width="3.8" stroke-linejoin="round" stroke-linecap="round"/><path d="M695,408.72 Q673.4,398.64 653.24,405.84 L653.24,447.6 Q673.4,440.4 695,450.48 Z" fill="#fff" stroke="#111" stroke-width="5.0" stroke-linejoin="round" stroke-linecap="round"/><line x1="686.36" y1="417.36" x2="663.32" y2="414.48" fill="none" stroke="#111" stroke-width="1.7999999999999998" stroke-linejoin="round" stroke-linecap="round"/><line x1="686.36" y1="427.44" x2="663.32" y2="424.56" fill="none" stroke="#111" stroke-width="1.7999999999999998" stroke-linejoin="round" stroke-linecap="round"/><line x1="686.36" y1="437.52000000000004" x2="663.32" y2="434.64000000000004" fill="none" stroke="#111" stroke-width="1.7999999999999998" stroke-linejoin="round" stroke-linecap="round"/><path d="M695,408.72 Q716.6,398.64 736.76,405.84 L736.76,447.6 Q716.6,440.4 695,450.48 Z" fill="#fff" stroke="#111" stroke-width="5.0" stroke-linejoin="round" stroke-linecap="round"/><line x1="703.64" y1="417.36" x2="726.68" y2="414.48" fill="none" stroke="#111" stroke-width="1.7999999999999998" stroke-linejoin="round" stroke-linecap="round"/><line x1="703.64" y1="427.44" x2="726.68" y2="424.56" fill="none" stroke="#111" stroke-width="1.7999999999999998" stroke-linejoin="round" stroke-linecap="round"/><line x1="703.64" y1="437.52000000000004" x2="726.68" y2="434.64000000000004" fill="none" stroke="#111" stroke-width="1.7999999999999998" stroke-linejoin="round" stroke-linecap="round"/><text x="695" y="486" font-family="'Arial Rounded MT Bold','Nunito','Arial',sans-serif" font-size="20" font-weight="700" text-anchor="middle" fill="#111">book</text><clipPath id="u7pp2"><rect x="60" y="512" width="116" height="112" rx="14"/></clipPath><g clip-path="url(#u7pp2)"><rect x="89.776" y="688.1599999999999" width="21.599999999999998" height="75.6" rx="5.76" fill="#fff" stroke="#111" stroke-width="5.0" stroke-linejoin="round" stroke-linecap="round"/><ellipse cx="94.09599999999999" cy="767.3599999999999" rx="19.439999999999998" ry="9.36" fill="#fff" stroke="#111" stroke-width="5.0" stroke-linejoin="round" stroke-linecap="round"/><rect x="124.62400000000001" y="688.1599999999999" width="21.599999999999998" height="75.6" rx="5.76" fill="#fff" stroke="#111" stroke-width="5.0" stroke-linejoin="round" stroke-linecap="round"/><ellipse cx="141.904" cy="767.3599999999999" rx="19.439999999999998" ry="9.36" fill="#fff" stroke="#111" stroke-width="5.0" stroke-linejoin="round" stroke-linecap="round"/><line x1="83.152" y1="604.6399999999999" x2="71.632" y2="676.6399999999999" stroke="#111" stroke-width="26.599999999999998" stroke-linecap="round"/><line x1="83.152" y1="604.6399999999999" x2="71.632" y2="676.6399999999999" stroke="#fff" stroke-width="18.599999999999998" stroke-linecap="round"/><line x1="152.848" y1="604.6399999999999" x2="164.36800000000002" y2="676.6399999999999" stroke="#111" stroke-width="26.599999999999998" stroke-linecap="round"/><line x1="152.848" y1="604.6399999999999" x2="164.36800000000002" y2="676.6399999999999" stroke="#fff" stroke-width="18.599999999999998" stroke-linecap="round"/><circle cx="71.632" cy="676.6399999999999" r="10.08" fill="#fff" stroke="#111" stroke-width="5.0" stroke-linejoin="round" stroke-linecap="round"/><circle cx="164.36800000000002" cy="676.6399999999999" r="10.08" fill="#fff" stroke="#111" stroke-width="5.0" stroke-linejoin="round" stroke-linecap="round"/><path d="M78.4,601.7599999999999 Q78.4,587.3599999999999 94.24000000000001,587.3599999999999 L141.76,587.3599999999999 Q157.6,587.3599999999999 157.6,601.7599999999999 L157.6,695.3599999999999 L78.4,695.3599999999999 Z" fill="#fff" stroke="#111" stroke-width="5.0" stroke-linejoin="round" stroke-linecap="round"/><path d="M99.28,587.3599999999999 L113.68,606.0799999999999 L118.0,591.68 L122.32,606.0799999999999 L136.72,587.3599999999999" fill="none" stroke="#111" stroke-width="2.8" stroke-linejoin="round" stroke-linecap="round"/><line x1="118.0" y1="606.0799999999999" x2="118.0" y2="680.9599999999999" fill="none" stroke="#111" stroke-width="2.8" stroke-linejoin="round" stroke-linecap="round"/><polygon points="97.8,612.6 94.5,620.2 86.2,621.0 92.5,626.5 90.6,634.7 97.8,630.4 105.0,634.7 103.2,626.5 109.5,621.0 101.1,620.2" fill="#fff" stroke="#111" stroke-width="2.8" stroke-linejoin="round" stroke-linecap="round"/><rect x="128.08" y="617.5999999999999" width="18.72" height="15.84" fill="#fff" stroke="#111" stroke-width="2.8" stroke-linejoin="round" stroke-linecap="round"/><rect x="78.4" y="679.5199999999999" width="79.2" height="10.08" fill="#fff" stroke="#111" stroke-width="2.8" stroke-linejoin="round" stroke-linecap="round"/><rect x="109.36" y="583.0399999999998" width="17.28" height="8.639999999999999" fill="#fff" stroke="#111" stroke-width="2.8" stroke-linejoin="round" stroke-linecap="round"/><circle cx="118.0" cy="559.9999999999999" r="28.799999999999997" fill="#fff" stroke="#111" stroke-width="5.0" stroke-linejoin="round" stroke-linecap="round"/><path d="M90.64,554.2399999999999 Q89.2,526.8799999999999 118.0,528.8959999999998 Q146.8,526.8799999999999 145.35999999999999,554.2399999999999 Q118.0,539.8399999999999 90.64,554.2399999999999 Z" fill="#fff" stroke="#111" stroke-width="5.0" stroke-linejoin="round" stroke-linecap="round"/><circle cx="107.632" cy="557.6959999999999" r="3.5999999999999996" fill="#111"/><circle cx="106.132" cy="556.1959999999999" r="1.2000000000000002" fill="#fff"/><circle cx="128.368" cy="557.6959999999999" r="3.5999999999999996" fill="#111"/><circle cx="126.868" cy="556.1959999999999" r="1.2000000000000002" fill="#fff"/><path d="M105.904,566.3359999999999 Q118.0,580.7359999999999 130.096,566.3359999999999 Z" fill="#fff" stroke="#111" stroke-width="3.3" stroke-linejoin="round" stroke-linecap="round"/><path d="M91.504,547.9039999999999 Q118.0,559.4239999999999 144.496,547.9039999999999 Z" fill="#fff" stroke="#111" stroke-width="3.8" stroke-linejoin="round" stroke-linecap="round"/><path d="M90.64,539.2639999999999 L82.0,523.1359999999999 Q118.0,518.2399999999999 154.0,523.1359999999999 L145.35999999999999,539.2639999999999 Z" fill="#fff" stroke="#111" stroke-width="5.0" stroke-linejoin="round" stroke-linecap="round"/><rect x="90.64" y="538.6879999999999" width="54.71999999999999" height="9.792" fill="#fff" stroke="#111" stroke-width="3.8" stroke-linejoin="round" stroke-linecap="round"/><polygon points="118.0,524.9 116.1,529.2 111.4,529.6 115.0,532.8 113.9,537.4 118.0,535.0 122.1,537.4 121.0,532.8 124.6,529.6 119.9,529.2" fill="#fff" stroke="#111" stroke-width="2.8" stroke-linejoin="round" stroke-linecap="round"/></g><rect x="60" y="512" width="116" height="112" rx="14" fill="none" stroke="#111" stroke-width="3.8" stroke-linejoin="round" stroke-linecap="round"/><text x="192" y="577" font-family="'Arial Rounded MT Bold','Nunito','Arial',sans-serif" font-size="25" font-weight="700" text-anchor="start" fill="#111">police officer</text><circle cx="432" cy="568" r="9" fill="#111"/><circle cx="572" cy="568" r="9" fill="#111"/><rect x="600" y="512" width="190" height="112" rx="16" fill="#fff" stroke="#111" stroke-width="3.8" stroke-linejoin="round" stroke-linecap="round"/><path d="M675.8,522.0 Q671.0,558.8 695,560.4 Q719.0,558.8 714.2,522.0" fill="none" stroke="#111" stroke-width="5.0" stroke-linejoin="round" stroke-linecap="round"/><path d="M695,560.4 Q699.8,579.6 719.0,578.0" fill="none" stroke="#111" stroke-width="5.0" stroke-linejoin="round" stroke-linecap="round"/><circle cx="728.6" cy="576.4" r="11.200000000000001" fill="#fff" stroke="#111" stroke-width="5.0" stroke-linejoin="round" stroke-linecap="round"/><circle cx="728.6" cy="576.4" r="4.0" fill="#fff" stroke="#111" stroke-width="2.8" stroke-linejoin="round" stroke-linecap="round"/><circle cx="675.8" cy="520.4" r="4.800000000000001" fill="#fff" stroke="#111" stroke-width="2.8" stroke-linejoin="round" stroke-linecap="round"/><circle cx="714.2" cy="520.4" r="4.800000000000001" fill="#fff" stroke="#111" stroke-width="2.8" stroke-linejoin="round" stroke-linecap="round"/><text x="695" y="614" font-family="'Arial Rounded MT Bold','Nunito','Arial',sans-serif" font-size="20" font-weight="700" text-anchor="middle" fill="#111">stethoscope</text><clipPath id="u7pp3"><rect x="60" y="640" width="116" height="112" rx="14"/></clipPath><g clip-path="url(#u7pp3)"><rect x="89.776" y="816.1599999999999" width="21.599999999999998" height="75.6" rx="5.76" fill="#fff" stroke="#111" stroke-width="5.0" stroke-linejoin="round" stroke-linecap="round"/><ellipse cx="94.09599999999999" cy="895.3599999999999" rx="19.439999999999998" ry="9.36" fill="#fff" stroke="#111" stroke-width="5.0" stroke-linejoin="round" stroke-linecap="round"/><rect x="124.62400000000001" y="816.1599999999999" width="21.599999999999998" height="75.6" rx="5.76" fill="#fff" stroke="#111" stroke-width="5.0" stroke-linejoin="round" stroke-linecap="round"/><ellipse cx="141.904" cy="895.3599999999999" rx="19.439999999999998" ry="9.36" fill="#fff" stroke="#111" stroke-width="5.0" stroke-linejoin="round" stroke-linecap="round"/><path d="M78.4,729.7599999999999 Q78.4,715.3599999999999 94.24000000000001,715.3599999999999 L141.76,715.3599999999999 Q157.6,715.3599999999999 157.6,729.7599999999999 L157.6,823.3599999999999 L78.4,823.3599999999999 Z" fill="#fff" stroke="#111" stroke-width="5.0" stroke-linejoin="round" stroke-linecap="round"/><path d="M102.16,715.3599999999999 L118.0,731.1999999999999 L133.84,715.3599999999999" fill="none" stroke="#111" stroke-width="2.8" stroke-linejoin="round" stroke-linecap="round"/><line x1="83.152" y1="732.6399999999999" x2="93.52" y2="767.1999999999999" stroke="#111" stroke-width="26.599999999999998" stroke-linecap="round"/><line x1="83.152" y1="732.6399999999999" x2="93.52" y2="767.1999999999999" stroke="#fff" stroke-width="18.599999999999998" stroke-linecap="round"/><line x1="152.848" y1="732.6399999999999" x2="142.48" y2="767.1999999999999" stroke="#111" stroke-width="26.599999999999998" stroke-linecap="round"/><line x1="152.848" y1="732.6399999999999" x2="142.48" y2="767.1999999999999" stroke="#fff" stroke-width="18.599999999999998" stroke-linecap="round"/><circle cx="118.0" cy="771.5199999999999" r="27.36" fill="#fff" stroke="#111" stroke-width="5.0" stroke-linejoin="round" stroke-linecap="round"/><circle cx="118.0" cy="771.5199999999999" r="8.64" fill="#fff" stroke="#111" stroke-width="2.8" stroke-linejoin="round" stroke-linecap="round"/><line x1="118.0" y1="771.5199999999999" x2="92.08" y2="771.5199999999999" fill="none" stroke="#111" stroke-width="2.8" stroke-linejoin="round" stroke-linecap="round"/><line x1="118.0" y1="771.5199999999999" x2="143.92" y2="771.5199999999999" fill="none" stroke="#111" stroke-width="2.8" stroke-linejoin="round" stroke-linecap="round"/><line x1="118.0" y1="771.5199999999999" x2="118.0" y2="797.4399999999998" fill="none" stroke="#111" stroke-width="2.8" stroke-linejoin="round" stroke-linecap="round"/><circle cx="118.0" cy="771.5199999999999" r="8.64" fill="#fff" stroke="#111" stroke-width="2.8" stroke-linejoin="round" stroke-linecap="round"/><circle cx="93.52" cy="767.1999999999999" r="10.08" fill="#fff" stroke="#111" stroke-width="5.0" stroke-linejoin="round" stroke-linecap="round"/><circle cx="142.48" cy="767.1999999999999" r="10.08" fill="#fff" stroke="#111" stroke-width="5.0" stroke-linejoin="round" stroke-linecap="round"/><rect x="109.36" y="711.0399999999998" width="17.28" height="8.639999999999999" fill="#fff" stroke="#111" stroke-width="2.8" stroke-linejoin="round" stroke-linecap="round"/><circle cx="118.0" cy="687.9999999999999" r="28.799999999999997" fill="#fff" stroke="#111" stroke-width="5.0" stroke-linejoin="round" stroke-linecap="round"/><circle cx="93.52000000000001" cy="676.4799999999999" r="9.216" fill="#fff" stroke="#111" stroke-width="5.0" stroke-linejoin="round" stroke-linecap="round"/><circle cx="102.16" cy="663.5199999999999" r="9.216" fill="#fff" stroke="#111" stroke-width="5.0" stroke-linejoin="round" stroke-linecap="round"/><circle cx="118.0" cy="657.7599999999999" r="9.216" fill="#fff" stroke="#111" stroke-width="5.0" stroke-linejoin="round" stroke-linecap="round"/><circle cx="133.84" cy="663.5199999999999" r="9.216" fill="#fff" stroke="#111" stroke-width="5.0" stroke-linejoin="round" stroke-linecap="round"/><circle cx="142.48" cy="676.4799999999999" r="9.216" fill="#fff" stroke="#111" stroke-width="5.0" stroke-linejoin="round" stroke-linecap="round"/><circle cx="107.632" cy="685.6959999999999" r="3.5999999999999996" fill="#111"/><circle cx="106.132" cy="684.1959999999999" r="1.2000000000000002" fill="#fff"/><circle cx="128.368" cy="685.6959999999999" r="3.5999999999999996" fill="#111"/><circle cx="126.868" cy="684.1959999999999" r="1.2000000000000002" fill="#fff"/><path d="M105.904,694.3359999999999 Q118.0,708.7359999999999 130.096,694.3359999999999 Z" fill="#fff" stroke="#111" stroke-width="3.3" stroke-linejoin="round" stroke-linecap="round"/><path d="M91.504,691.4559999999999 Q92.656,720.2559999999999 118.0,720.8319999999999 Q143.344,720.2559999999999 144.496,691.4559999999999 Q135.856,712.7679999999999 118.0,712.7679999999999 Q100.144,712.7679999999999 91.504,691.4559999999999 Z" fill="#fff" stroke="#111" stroke-width="2.8" stroke-linejoin="round" stroke-linecap="round"/><path d="M90.64,675.0399999999998 Q118.0,685.6959999999999 145.35999999999999,675.0399999999998 Z" fill="#fff" stroke="#111" stroke-width="3.8" stroke-linejoin="round" stroke-linecap="round"/><path d="M89.77600000000001,673.5999999999999 Q86.896,649.1199999999999 118.0,649.1199999999999 Q149.10399999999998,649.1199999999999 146.224,673.5999999999999 Z" fill="#fff" stroke="#111" stroke-width="5.0" stroke-linejoin="round" stroke-linecap="round"/><line x1="89.77600000000001" y1="667.2639999999999" x2="146.224" y2="667.2639999999999" fill="none" stroke="#111" stroke-width="2.8" stroke-linejoin="round" stroke-linecap="round"/><circle cx="118.0" cy="660.0639999999999" r="4.032" fill="#fff" stroke="#111" stroke-width="2.8" stroke-linejoin="round" stroke-linecap="round"/></g><rect x="60" y="640" width="116" height="112" rx="14" fill="none" stroke="#111" stroke-width="3.8" stroke-linejoin="round" stroke-linecap="round"/><text x="192" y="705" font-family="'Arial Rounded MT Bold','Nunito','Arial',sans-serif" font-size="26" font-weight="700" text-anchor="start" fill="#111">bus driver</text><circle cx="432" cy="696" r="9" fill="#111"/><circle cx="572" cy="696" r="9" fill="#111"/><rect x="600" y="640" width="190" height="112" rx="16" fill="#fff" stroke="#111" stroke-width="3.8" stroke-linejoin="round" stroke-linecap="round"/><polygon points="695.0,651.4 686.7,670.6 665.9,672.5 681.6,686.3 677.0,706.8 695.0,696.1 713.0,706.8 708.4,686.3 724.1,672.5 703.3,670.6" fill="#fff" stroke="#111" stroke-width="5.0" stroke-linejoin="round" stroke-linecap="round"/><circle cx="695" cy="683.7" r="7.6499999999999995" fill="#fff" stroke="#111" stroke-width="2.8" stroke-linejoin="round" stroke-linecap="round"/><text x="695" y="742" font-family="'Arial Rounded MT Bold','Nunito','Arial',sans-serif" font-size="20" font-weight="700" text-anchor="middle" fill="#111">badge</text><clipPath id="u7pp4"><rect x="60" y="768" width="116" height="112" rx="14"/></clipPath><g clip-path="url(#u7pp4)"><ellipse cx="118.0" cy="800.2349999999999" rx="23.753249999999998" ry="20.655" fill="#fff" stroke="#111" stroke-width="5.0" stroke-linejoin="round" stroke-linecap="round"/><circle cx="139.68775" cy="800.2349999999999" r="5.832" fill="#fff" stroke="#111" stroke-width="2.8" stroke-linejoin="round" stroke-linecap="round"/><circle cx="134.61378037125363" cy="812.1841002702678" r="5.832" fill="#fff" stroke="#111" stroke-width="2.8" stroke-linejoin="round" stroke-linecap="round"/><circle cx="121.76603826519597" cy="818.5420837246204" r="5.832" fill="#fff" stroke="#111" stroke-width="2.8" stroke-linejoin="round" stroke-linecap="round"/><circle cx="107.156125" cy="816.3339792436507" r="5.832" fill="#fff" stroke="#111" stroke-width="2.8" stroke-linejoin="round" stroke-linecap="round"/><circle cx="97.62018136355042" cy="806.5929834543524" r="5.832" fill="#fff" stroke="#111" stroke-width="2.8" stroke-linejoin="round" stroke-linecap="round"/><circle cx="97.62018136355042" cy="793.8770165456474" r="5.832" fill="#fff" stroke="#111" stroke-width="2.8" stroke-linejoin="round" stroke-linecap="round"/><circle cx="107.15612499999999" cy="784.1360207563491" r="5.832" fill="#fff" stroke="#111" stroke-width="2.8" stroke-linejoin="round" stroke-linecap="round"/><circle cx="121.76603826519596" cy="781.9279162753794" r="5.832" fill="#fff" stroke="#111" stroke-width="2.8" stroke-linejoin="round" stroke-linecap="round"/><circle cx="134.6137803712536" cy="788.285899729732" r="5.832" fill="#fff" stroke="#111" stroke-width="2.8" stroke-linejoin="round" stroke-linecap="round"/><circle cx="109.495" cy="795.3749999999999" r="5.346" fill="#fff" stroke="#111" stroke-width="2.8" stroke-linejoin="round" stroke-linecap="round"/><circle cx="126.505" cy="795.3749999999999" r="5.346" fill="#fff" stroke="#111" stroke-width="2.8" stroke-linejoin="round" stroke-linecap="round"/><circle cx="118.0" cy="806.31" r="5.346" fill="#fff" stroke="#111" stroke-width="2.8" stroke-linejoin="round" stroke-linecap="round"/><circle cx="108.28" cy="807.5249999999999" r="5.346" fill="#fff" stroke="#111" stroke-width="2.8" stroke-linejoin="round" stroke-linecap="round"/><circle cx="127.72" cy="807.5249999999999" r="5.346" fill="#fff" stroke="#111" stroke-width="2.8" stroke-linejoin="round" stroke-linecap="round"/><ellipse cx="118.0" cy="809.9549999999999" rx="15.795000000000002" ry="4.374" fill="#fff" stroke="#111" stroke-width="3.3" stroke-linejoin="round" stroke-linecap="round"/><path d="M114.4,936.765 L116.776,1017.765 L87.39999999999999,1017.765 L88.93,909.765 Z" fill="#fff" stroke="#111" stroke-width="5.0" stroke-linejoin="round" stroke-linecap="round"/><line x1="116.776" y1="1017.765" x2="87.39999999999999" y2="1017.765" fill="none" stroke="#111" stroke-width="2.8" stroke-linejoin="round" stroke-linecap="round"/><path d="M89.488,1017.765 L116.488,1017.765 Q120.088,1026.7649999999999 115.588,1033.965 L89.488,1033.965 Q86.788,1025.865 89.488,1017.765 Z" fill="#fff" stroke="#111" stroke-width="5.0" stroke-linejoin="round" stroke-linecap="round"/><path d="M108.38799999999999,1022.265 Q116.488,1025.865 112.88799999999999,1033.965" fill="none" stroke="#111" stroke-width="2.8" stroke-linejoin="round" stroke-linecap="round"/><line x1="87.68799999999999" y1="1031.2649999999999" x2="118.288" y2="1031.2649999999999" fill="none" stroke="#111" stroke-width="2.8" stroke-linejoin="round" stroke-linecap="round"/><line x1="97.588" y1="1021.365" x2="104.788" y2="1024.965" fill="none" stroke="#111" stroke-width="1.8" stroke-linejoin="round" stroke-linecap="round"/><line x1="97.588" y1="1024.965" x2="104.788" y2="1021.365" fill="none" stroke="#111" stroke-width="1.8" stroke-linejoin="round" stroke-linecap="round"/><path d="M121.6,936.765 L119.224,1017.765 L148.6,1017.765 L147.07,909.765 Z" fill="#fff" stroke="#111" stroke-width="5.0" stroke-linejoin="round" stroke-linecap="round"/><line x1="119.224" y1="1017.765" x2="148.6" y2="1017.765" fill="none" stroke="#111" stroke-width="2.8" stroke-linejoin="round" stroke-linecap="round"/><path d="M121.31200000000001,1017.765 L148.312,1017.765 Q151.912,1026.7649999999999 147.412,1033.965 L121.31200000000001,1033.965 Q118.61200000000001,1025.865 121.31200000000001,1017.765 Z" fill="#fff" stroke="#111" stroke-width="5.0" stroke-linejoin="round" stroke-linecap="round"/><path d="M140.21200000000002,1022.265 Q148.312,1025.865 144.71200000000002,1033.965" fill="none" stroke="#111" stroke-width="2.8" stroke-linejoin="round" stroke-linecap="round"/><line x1="119.512" y1="1031.2649999999999" x2="150.112" y2="1031.2649999999999" fill="none" stroke="#111" stroke-width="2.8" stroke-linejoin="round" stroke-linecap="round"/><line x1="129.412" y1="1021.365" x2="136.612" y2="1024.965" fill="none" stroke="#111" stroke-width="1.8" stroke-linejoin="round" stroke-linecap="round"/><line x1="129.412" y1="1024.965" x2="136.612" y2="1021.365" fill="none" stroke="#111" stroke-width="1.8" stroke-linejoin="round" stroke-linecap="round"/><rect x="90.46" y="904.365" width="55.080000000000005" height="6.3" rx="1.8" fill="#fff" stroke="#111" stroke-width="2.8" stroke-linejoin="round" stroke-linecap="round"/><rect x="113.5" y="903.465" width="9.0" height="8.1" rx="1.35" fill="#fff" stroke="#111" stroke-width="3.8" stroke-linejoin="round" stroke-linecap="round"/><path d="M86.5,861.165 Q86.5,851.265 99.1,851.265 L136.9,851.265 Q149.5,851.265 149.5,861.165 L150.76,927.765 L85.24000000000001,927.765 Z" fill="#fff" stroke="#111" stroke-width="5.0" stroke-linejoin="round" stroke-linecap="round"/><path d="M106.3,851.265 L108.64,927.765 L85.24000000000001,927.765 L86.5,861.165 Z" fill="#fff" stroke="#111" stroke-width="2.8" stroke-linejoin="round" stroke-linecap="round"/><path d="M129.7,851.265 L127.36,927.765 L150.76,927.765 L149.5,861.165 Z" fill="#fff" stroke="#111" stroke-width="2.8" stroke-linejoin="round" stroke-linecap="round"/><rect x="89.02" y="905.265" width="16.2" height="19.8" rx="2.7" fill="#fff" stroke="#111" stroke-width="2.8" stroke-linejoin="round" stroke-linecap="round"/><rect x="130.78" y="905.265" width="16.2" height="19.8" rx="2.7" fill="#fff" stroke="#111" stroke-width="2.8" stroke-linejoin="round" stroke-linecap="round"/><path d="M110.8,852.165 L118.0,888.165 L125.2,852.165" fill="none" stroke="#111" stroke-width="3.3" stroke-linejoin="round" stroke-linecap="round"/><rect x="115.75" y="888.165" width="4.5" height="3.6" rx="0.9" fill="#fff" stroke="#111" stroke-width="2.8" stroke-linejoin="round" stroke-linecap="round"/><rect x="109.9" y="891.765" width="16.2" height="21.6" rx="2.25" fill="#fff" stroke="#111" stroke-width="5.0" stroke-linejoin="round" stroke-linecap="round"/><circle cx="118.0" cy="894.4649999999999" r="1.35" fill="#111"/><text x="118.0" y="904.365" font-family="'Arial Black','Arial',sans-serif" font-size="9" font-weight="700" text-anchor="middle" fill="#111">B</text><text x="118.0" y="909.765" font-family="'Arial Rounded MT Bold','Nunito','Arial',sans-serif" font-size="5" font-weight="700" text-anchor="middle" fill="#111">♡</text><path d="M90.28,862.965 Q81.46000000000001,885.465 90.28,914.715" stroke="#111" stroke-width="19.4" stroke-linecap="round" fill="none"/><path d="M90.28,862.965 Q81.46000000000001,885.465 90.28,914.715" stroke="#fff" stroke-width="11.4" stroke-linecap="round" fill="none"/><g transform="rotate(-8 85.78 896.715)"><rect x="69.58" y="896.715" width="32.4" height="44.1" rx="2.7" fill="#fff" stroke="#111" stroke-width="5.0" stroke-linejoin="round" stroke-linecap="round"/><rect x="73.17999999999999" y="900.315" width="25.2" height="36.9" rx="1.8" fill="none" stroke="#111" stroke-width="2.8" stroke-linejoin="round" stroke-linecap="round"/><text x="85.78" y="910.215" font-family="'Arial Black','Arial',sans-serif" font-size="6" font-weight="700" text-anchor="middle" fill="#111">Kind</text><text x="85.78" y="917.4150000000001" font-family="'Arial Black','Arial',sans-serif" font-size="5" font-weight="700" text-anchor="middle" fill="#111">English</text><text x="85.78" y="924.615" font-family="'Arial Black','Arial',sans-serif" font-size="4" font-weight="700" text-anchor="middle" fill="#111">Brighter</text><text x="85.78" y="930.9150000000001" font-family="'Arial Rounded MT Bold','Nunito','Arial',sans-serif" font-size="4" font-weight="700" text-anchor="middle" fill="#111">Futures ♡</text></g><ellipse cx="90.28" cy="919.215" rx="6.3" ry="5.4" fill="#fff" stroke="#111" stroke-width="3.8" stroke-linejoin="round" stroke-linecap="round"/><rect x="111.25" y="846.405" width="13.5" height="9.234" fill="#fff" stroke="#111" stroke-width="2.8" stroke-linejoin="round" stroke-linecap="round"/><circle cx="118.0" cy="828.18" r="24.3" fill="#fff" stroke="#111" stroke-width="5.0" stroke-linejoin="round" stroke-linecap="round"/><circle cx="92.728" cy="836.685" r="5.346" fill="#fff" stroke="#111" stroke-width="3.8" stroke-linejoin="round" stroke-linecap="round"/><circle cx="92.728" cy="836.685" r="3.4020000000000006" fill="#fff" stroke="#111" stroke-width="2.8"/><circle cx="143.272" cy="836.685" r="5.346" fill="#fff" stroke="#111" stroke-width="3.8" stroke-linejoin="round" stroke-linecap="round"/><circle cx="143.272" cy="836.685" r="3.4020000000000006" fill="#fff" stroke="#111" stroke-width="2.8"/><path d="M114.11200000000001,819.918 Q108.766,816.516 103.42,820.6469999999999" fill="none" stroke="#111" stroke-width="3.8" stroke-linejoin="round" stroke-linecap="round"/><ellipse cx="108.766" cy="826.722" rx="5.346" ry="3.8880000000000003" fill="#fff" stroke="#111" stroke-width="3.8" stroke-linejoin="round" stroke-linecap="round"/><circle cx="107.866" cy="826.722" r="2.673" fill="#111"/><circle cx="106.966" cy="825.822" r="0.9720000000000001" fill="#fff"/><line x1="104.39200000000001" y1="823.8059999999999" x2="101.962" y2="821.376" fill="none" stroke="#111" stroke-width="2.8" stroke-linejoin="round" stroke-linecap="round"/><path d="M121.88799999999999,819.918 Q127.234,816.516 132.57999999999998,820.6469999999999" fill="none" stroke="#111" stroke-width="3.8" stroke-linejoin="round" stroke-linecap="round"/><ellipse cx="127.234" cy="826.722" rx="5.346" ry="3.8880000000000003" fill="#fff" stroke="#111" stroke-width="3.8" stroke-linejoin="round" stroke-linecap="round"/><circle cx="128.134" cy="826.722" r="2.673" fill="#111"/><circle cx="127.23399999999998" cy="825.822" r="0.9720000000000001" fill="#fff"/><line x1="131.608" y1="823.8059999999999" x2="134.03799999999998" y2="821.376" fill="none" stroke="#111" stroke-width="2.8" stroke-linejoin="round" stroke-linecap="round"/><path d="M115.75,832.554 Q118.0,834.012 120.25,832.554" fill="none" stroke="#111" stroke-width="2.8" stroke-linejoin="round" stroke-linecap="round"/><path d="M107.794,837.414 Q118.0,848.106 128.206,837.414 Z" fill="#fff" stroke="#111" stroke-width="3.8" stroke-linejoin="round" stroke-linecap="round"/><line x1="109.738" y1="838.872" x2="126.262" y2="838.872" fill="none" stroke="#111" stroke-width="2.8" stroke-linejoin="round" stroke-linecap="round"/></g><rect x="60" y="768" width="116" height="112" rx="14" fill="none" stroke="#111" stroke-width="3.8" stroke-linejoin="round" stroke-linecap="round"/><text x="192" y="833" font-family="'Arial Rounded MT Bold','Nunito','Arial',sans-serif" font-size="26" font-weight="700" text-anchor="start" fill="#111">teacher</text><circle cx="432" cy="824" r="9" fill="#111"/><circle cx="572" cy="824" r="9" fill="#111"/><rect x="600" y="768" width="190" height="112" rx="16" fill="#fff" stroke="#111" stroke-width="3.8" stroke-linejoin="round" stroke-linecap="round"/><circle cx="682.04" cy="810" r="23.04" fill="none" stroke="#111" stroke-width="16.52"/><circle cx="682.04" cy="810" r="23.04" fill="none" stroke="#fff" stroke-width="8.52"/><circle cx="682.04" cy="810" r="8.64" fill="#fff" stroke="#111" stroke-width="2.8" stroke-linejoin="round" stroke-linecap="round"/><line x1="703.64" y1="820.08" x2="720.92" y2="799.92" stroke="#111" stroke-width="16.52" stroke-linecap="round"/><line x1="703.64" y1="820.08" x2="720.92" y2="799.92" stroke="#fff" stroke-width="8.52" stroke-linecap="round"/><path d="M716.6,792.72 L736.76,778.32 L742.52,788.4 L726.68,805.68 Z" fill="#fff" stroke="#111" stroke-width="5.0" stroke-linejoin="round" stroke-linecap="round"/><text x="695" y="870" font-family="'Arial Rounded MT Bold','Nunito','Arial',sans-serif" font-size="20" font-weight="700" text-anchor="middle" fill="#111">hose</text><text x="425.0" y="948" font-family="'Arial Rounded MT Bold','Nunito','Arial',sans-serif" font-size="34" font-weight="700" text-anchor="middle" fill="#111">A ________ helps us.</text><rect x="40" y="980" width="770" height="88" rx="18" fill="#fff" stroke="#111" stroke-width="2.8" stroke-linejoin="round" stroke-linecap="round"/><text x="62" y="1012" font-family="'Arial Rounded MT Bold','Nunito','Arial',sans-serif" font-size="17" font-weight="700" text-anchor="start" fill="#111">Words: doctor · firefighter · police officer · bus driver · teacher</text><text x="62" y="1042" font-family="'Arial Rounded MT Bold','Nunito','Arial',sans-serif" font-size="15" font-weight="400" text-anchor="start" fill="#111">Mrs. B tip: How does a firefighter help?</text><text x="785" y="1045" font-family="'Arial Black','Arial',sans-serif" font-size="24" font-weight="700" text-anchor="end" fill="#111">32</text></svg>